<?xml version="1.0" encoding="UTF-8"?>
<svg xmlns="http://www.w3.org/2000/svg" xmlns:xlink="http://www.w3.org/1999/xlink" viewBox="0 0 1917.96 1081.16">
  <defs>
    <clipPath id="clippath-1">
      <rect x="-1.02" y=".58" width="1920" height="1080" style="fill: none;"/>
    </clipPath>
    <radialGradient id="radial-gradient" cx="959.01" cy="540.58" fx="959.01" fy="1101.83" r="778.37" gradientTransform="translate(-14.46)" gradientUnits="userSpaceOnUse">
      <stop offset=".23" stop-color="#854567"/>
      <stop offset="1" stop-color="#400059"/>
    </radialGradient>
    <radialGradient id="radial-gradient-2" cx="389.38" cy="258.4" fx="389.38" fy="258.4" r="67.69" gradientTransform="translate(-14.46)" gradientUnits="userSpaceOnUse">
      <stop offset=".23" stop-color="#e5ee00"/>
      <stop offset="1" stop-color="#fffde0"/>
    </radialGradient>
    <radialGradient id="radial-gradient-3" cx="1663.47" cy="138.47" fx="1663.47" fy="138.47" r="51.41" xlink:href="#radial-gradient-2"/>
    <radialGradient id="radial-gradient-4" cx="1852.79" cy="293.61" fx="1852.79" fy="293.61" r="46.16" xlink:href="#radial-gradient-2"/>
    <radialGradient id="radial-gradient-5" cx="687.3" cy="187.33" fx="687.3" fy="187.33" r="39.2" xlink:href="#radial-gradient-2"/>
    <radialGradient id="radial-gradient-6" cx="210.11" cy="505.2" fx="210.11" fy="505.2" r="33.18" xlink:href="#radial-gradient-2"/>
    <radialGradient id="radial-gradient-7" cx="1104.48" cy="191.05" fx="1104.48" fy="191.05" r="57.67" xlink:href="#radial-gradient-2"/>
    <radialGradient id="radial-gradient-8" cx="1587.71" cy="659.42" fx="1587.71" fy="659.42" r="33.09" xlink:href="#radial-gradient-2"/>
    <radialGradient id="radial-gradient-9" cx="1553.55" cy="391.44" fx="1553.55" fy="391.44" r="25.7" xlink:href="#radial-gradient-2"/>
    <radialGradient id="radial-gradient-10" cx="194.01" cy="507.13" fx="194.01" fy="507.13" r="48.51" gradientUnits="userSpaceOnUse">
      <stop offset="0" stop-color="#fffde0"/>
      <stop offset=".6" stop-color="#400059" stop-opacity=".6"/>
    </radialGradient>
    <radialGradient id="radial-gradient-11" cx="1547.6" cy="392.75" fx="1547.6" fy="392.75" xlink:href="#radial-gradient-10"/>
    <radialGradient id="radial-gradient-12" cx="1584.4" cy="663.98" fx="1584.4" fy="663.98" r="48.51" xlink:href="#radial-gradient-10"/>
    <radialGradient id="radial-gradient-13" cx="372.55" cy="275.58" fx="372.55" fy="275.58" r="48.51" gradientTransform="translate(-198.07 -121.44) scale(1.55 1.42)" xlink:href="#radial-gradient-10"/>
    <radialGradient id="radial-gradient-14" cx="835.89" cy="220.6" fx="835.89" fy="220.6" r="48.51" gradientTransform="translate(-198.07 -121.44) scale(1.55 1.42)" xlink:href="#radial-gradient-10"/>
    <radialGradient id="radial-gradient-15" cx="1200.49" cy="187.18" fx="1200.49" fy="187.18" r="48.51" gradientTransform="translate(-198.07 -121.44) scale(1.55 1.42)" xlink:href="#radial-gradient-10"/>
    <radialGradient id="radial-gradient-16" cx="560.3" cy="225.14" fx="560.3" fy="225.14" gradientTransform="translate(-45.66 -100.51) scale(1.3)" xlink:href="#radial-gradient-10"/>
    <radialGradient id="radial-gradient-17" cx="1462.69" cy="305.31" fx="1462.69" fy="305.31" gradientTransform="translate(-45.66 -100.51) scale(1.3)" xlink:href="#radial-gradient-10"/>
  </defs>
  <g id="Layer_3" data-name="Layer 3">
    <g style="clip-path: url(#clippath-1);">
      <g>
        <rect x="-14.96" y="1.08" width="1932.75" height="1082.5" style="fill: url(#radial-gradient);"/>
        <path d="M1917.29,1.58v1081.5H-14.46V1.58h1931.75M1918.29.58H-15.46v1083.5h1933.75V.58h0Z"/>
      </g>
      <path d="M-9.48,1154.36c182.3,46.02,538.1,77.27,947.16,77.27,594.78,0,1076.94-66.06,1076.94-147.54s-482.16-147.54-1076.94-147.54c-395.38,0-740.98,29.19-928.27,72.7,1.01,3.29-1.61,7.73-6,6.61-3.21-.82-6.38-1.8-9.53-2.88-1.36.34-2.71.68-4.05,1.02-2.58,25.1-5.35,50.21-5.74,75.45-.33,21.96,1.57,43.69,6.42,64.92" style="fill: #27634e;"/>
      <g>
        <polygon points="354.48 275.12 308.91 248.53 361.47 243.36 372.78 191.97 393.95 240.17 446.51 235.01 407.04 269.96 428.21 318.15 382.64 291.56 343.16 326.51 354.48 275.12" style="fill: url(#radial-gradient-2);"/>
        <path d="M372.94,193.57l20.41,46.47.29.66.72-.07,50.66-4.98-38.04,33.69-.55.48.29.67,20.41,46.46-43.93-25.64-.63-.36-.54.48-38.06,33.7,10.9-49.53.16-.71-.63-.37-43.92-25.63,50.66-4.98.72-.07.16-.71,10.9-49.54M372.62,190.37l-11.56,52.54-53.73,5.28,46.59,27.19-11.56,52.54,40.36-35.73,46.59,27.19-21.65-49.27,40.36-35.73-53.73,5.28-21.65-49.27h0Z"/>
      </g>
      <g>
        <polygon points="1642.8 150.94 1608.52 130.1 1648.55 126.89 1657.86 87.97 1673.29 124.91 1713.32 121.7 1682.83 147.73 1698.26 184.67 1663.98 163.82 1633.49 189.86 1642.8 150.94" style="fill: url(#radial-gradient-3);"/>
        <path d="M1657.98,89.58l14.71,35.19.28.67.72-.06,38.13-3.06-29.04,24.79-.55.47.28.67,14.7,35.18-32.66-19.86-.62-.38-.55.47-29.05,24.8,8.86-37.07.17-.71-.62-.38-32.65-19.85,38.13-3.06.72-.06.17-.71,8.87-37.08M1657.73,86.37l-9.58,40.06-41.21,3.3,35.29,21.45-9.58,40.06,31.39-26.8,35.29,21.45-15.89-38.02,31.39-26.8-41.21,3.3-15.89-38.02h0Z"/>
      </g>
      <g>
        <polygon points="1849.64 317.35 1819.24 336.81 1832.35 303.27 1804.37 280.49 1840.45 282.54 1853.55 248.99 1862.74 283.81 1898.82 285.86 1868.42 305.32 1877.62 340.13 1849.64 317.35" style="fill: url(#radial-gradient-4);"/>
        <path d="M1853.46,250.6l8.71,32.98.19.7.72.04,34.17,1.94-28.79,18.43-.61.39.19.7,8.71,32.97-26.51-21.58-.56-.46-.61.39-28.8,18.44,12.41-31.77.27-.68-.57-.46-26.5-21.57,34.17,1.94.72.04.26-.68,12.42-31.78M1853.64,247.38l-13.53,34.64-37.25-2.12,28.89,23.52-13.53,34.64,31.39-20.1,28.89,23.52-9.49-35.95,31.39-20.1-37.25-2.12-9.49-35.95h0Z"/>
      </g>
      <g>
        <polygon points="667.5 197.36 638.91 186.26 668.59 178.5 670.35 147.98 686.94 173.71 716.62 165.94 697.19 189.6 713.77 215.32 685.18 204.22 665.74 227.88 667.5 197.36" style="fill: url(#radial-gradient-5);"/>
        <path d="M670.76,149.54l15.56,24.13.39.61.7-.18,27.84-7.28-18.22,22.18-.46.56.4.61,15.55,24.12-26.82-10.41-.68-.26-.46.56-18.23,22.19,1.65-28.62.04-.73-.68-.26-26.81-10.41,27.83-7.28.7-.18.04-.73,1.65-28.63M669.94,146.42l-1.83,31.69-30.82,8.06,29.69,11.52-1.83,31.69,20.18-24.57,29.69,11.52-17.22-26.71,20.18-24.57-30.82,8.06-17.22-26.71h0Z"/>
      </g>
      <g>
        <polygon points="190.12 520.22 165.56 528.91 180.31 507.5 164.43 486.91 189.43 494.27 204.18 472.86 204.88 498.82 229.87 506.18 205.31 514.86 206.01 540.81 190.12 520.22" style="fill: url(#radial-gradient-6);"/>
        <path d="M203.72,474.41l.65,24.06.02.73.7.21,23.16,6.82-22.76,8.04-.69.24.02.73.65,24.06-14.72-19.09-.44-.57-.68.24-22.77,8.05,13.67-19.84.41-.6-.45-.58-14.71-19.08,23.17,6.82.69.2.41-.6,13.68-19.85M204.64,471.32l-15.42,22.37-26.12-7.69,16.6,21.52-15.42,22.37,25.67-9.07,16.6,21.52-.73-27.13,25.67-9.07-26.12-7.69-.73-27.13h0Z"/>
      </g>
      <g>
        <polygon points="1088.17 216.24 1046.66 233.65 1069.97 195.26 1040.52 161.32 1084.38 171.54 1107.69 133.14 1111.48 177.85 1155.34 188.07 1113.83 205.48 1117.63 250.19 1088.17 216.24" style="fill: url(#radial-gradient-7);"/>
        <path d="M1107.32,134.71l3.64,42.82.06.72.71.16,41.99,9.79-39.75,16.67-.67.28.06.73,3.64,42.82-28.21-32.52-.47-.55-.67.28-39.76,16.67,22.32-36.76.38-.62-.48-.55-28.2-32.5,42,9.79.71.16.38-.62,22.33-36.77M1108.06,131.57l-23.92,39.39-45-10.49,30.22,34.83-23.92,39.39,42.6-17.87,30.22,34.83-3.89-45.88,42.6-17.87-45-10.49-3.89-45.88h0Z"/>
      </g>
      <g>
        <polygon points="1573.26 669.32 1550.98 656.32 1576.68 653.79 1582.21 628.67 1592.56 652.23 1618.25 649.71 1598.95 666.79 1609.3 690.35 1587.03 677.35 1567.73 694.44 1573.26 669.32" style="fill: url(#radial-gradient-8);"/>
        <path d="M1582.36,630.27l9.59,21.83.29.66.72-.07,23.8-2.34-17.87,15.82-.55.48.29.67,9.59,21.82-20.64-12.04-.62-.36-.54.48-17.88,15.83,5.12-23.27.16-.71-.63-.37-20.63-12.04,23.79-2.34.72-.07.16-.71,5.12-23.27M1582.05,627.06l-5.78,26.27-26.87,2.64,23.29,13.59-5.78,26.27,20.18-17.87,23.29,13.59-10.82-24.64,20.18-17.87-26.87,2.64-10.82-24.64h0Z"/>
      </g>
      <g>
        <polygon points="1544.36 402.85 1525.13 409.18 1536.95 392.8 1524.97 376.55 1544.25 382.68 1556.07 366.3 1556.18 386.47 1575.46 392.61 1556.24 398.94 1556.35 419.11 1544.36 402.85" style="fill: url(#radial-gradient-9);"/>
        <path d="M1555.58,367.84l.09,18.27v.73s.7.22.7.22l17.47,5.55-17.41,5.73-.69.23v.73s.1,18.27.1,18.27l-10.86-14.73-.43-.58-.69.23-17.42,5.74,10.7-14.83.43-.59-.43-.59-10.85-14.72,17.47,5.56.69.22.42-.59,10.71-14.84M1556.56,364.77l-12.5,17.33-20.41-6.49,12.68,17.2-12.5,17.33,20.34-6.7,12.68,17.2-.11-21.34,20.34-6.7-20.41-6.49-.11-21.34h0Z"/>
      </g>
    </g>
  </g>
  <g id="Layer_4" data-name="Layer 4">
    <circle cx="194.01" cy="507.13" r="48.51" style="fill: url(#radial-gradient-10);"/>
    <circle cx="1547.6" cy="392.75" r="48.51" style="fill: url(#radial-gradient-11);"/>
    <circle cx="1584.4" cy="663.98" r="48.51" style="fill: url(#radial-gradient-12);"/>
    <ellipse cx="378.38" cy="270.16" rx="75.06" ry="68.94" style="fill: url(#radial-gradient-13);"/>
    <ellipse cx="1095.32" cy="192.03" rx="75.06" ry="68.94" style="fill: url(#radial-gradient-14);"/>
    <ellipse cx="1659.46" cy="144.54" rx="75.06" ry="68.94" style="fill: url(#radial-gradient-15);"/>
    <circle cx="682.38" cy="192.03" r="63.04" style="fill: url(#radial-gradient-16);"/>
    <circle cx="1854.92" cy="296.2" r="63.04" style="fill: url(#radial-gradient-17);"/>
  </g>
</svg>