<?xml version="1.0" encoding="UTF-8"?>
<svg id="Layer_1" data-name="Layer 1" xmlns="http://www.w3.org/2000/svg" xmlns:xlink="http://www.w3.org/1999/xlink" viewBox="0 0 1125 2436">
  <defs>
    <radialGradient id="radial-gradient" cx="1067.08" cy="818.12" fx="1067.08" fy="1398.13" r="791.43" gradientTransform="translate(-773.63 365.92) scale(1.25 1.03)" gradientUnits="userSpaceOnUse">
      <stop offset=".07" stop-color="#c79b62"/>
      <stop offset=".54" stop-color="#cc7200"/>
      <stop offset=".95" stop-color="#473300"/>
    </radialGradient>
  </defs>
  <rect x="-659" y="644.12" width="2442.42" height="1133.33" transform="translate(-648.58 1773) rotate(-90)" style="fill: url(#radial-gradient);"/>
  <g>
    <path d="M684.99,409.92c0,65.88-59.33,119.28-132.53,119.28-27.51,0-53.06-7.54-74.24-20.46-29.5,7.56-64.41,11.93-101.81,11.93-22,0-43.13-1.51-62.81-4.3-17.97,8.2-38.3,12.82-59.83,12.82-73.19,0-132.53-53.4-132.53-119.28s59.34-119.27,132.53-119.27c6.36,0,12.62.41,18.74,1.18,17.63-47.24,67.23-81.27,125.66-81.27s109.07,34.75,126.21,82.77c9.05-1.76,18.45-2.69,28.08-2.69,73.19,0,132.53,53.4,132.53,119.27Z" style="fill: #c4ddf3;"/>
    <path d="M398.18,211.56c28.43,0,55.5,8.03,78.27,23.21,22.31,14.88,38.56,35.24,47,58.9l.29.81.84-.16c9.09-1.77,18.47-2.67,27.89-2.67,35.15,0,68.19,12.32,93.04,34.68,24.82,22.34,38.48,52.02,38.48,83.59s-13.67,61.26-38.48,83.6c-24.85,22.36-57.89,34.68-93.04,34.68-26.43,0-51.93-7.02-73.72-20.31l-.36-.22-.41.1c-30.38,7.79-65.5,11.9-101.57,11.9-21.48,0-42.57-1.44-62.67-4.29l-.29-.04-.27.12c-18.52,8.45-38.51,12.73-59.41,12.73-35.15,0-68.2-12.32-93.04-34.68-24.82-22.34-38.49-52.03-38.49-83.6s13.67-61.26,38.49-83.59c24.85-22.36,57.89-34.68,93.04-34.68,6.21,0,12.47.4,18.62,1.18l.79.1.28-.74c8.69-23.28,24.99-43.29,47.14-57.86,22.63-14.89,49.45-22.76,77.58-22.76M398.18,210.56c-58.43,0-108.03,34.03-125.66,81.27-6.13-.78-12.38-1.18-18.74-1.18-73.19,0-132.53,53.4-132.53,119.27s59.34,119.28,132.53,119.28c21.52,0,41.86-4.62,59.83-12.82,19.68,2.79,40.81,4.3,62.81,4.3,37.4,0,72.31-4.37,101.81-11.93,21.18,12.91,46.73,20.46,74.24,20.46,73.19,0,132.53-53.4,132.53-119.28s-59.33-119.27-132.53-119.27c-9.64,0-19.03.92-28.08,2.69-17.13-48.02-67.16-82.77-126.2-82.77h0Z"/>
  </g>
  <g>
    <path d="M1010.7,806.49c0,72.68-55.14,131.6-123.16,131.6-25.57,0-49.31-8.32-68.99-22.57-27.42,8.34-59.86,13.17-94.62,13.17-20.44,0-40.08-1.67-58.37-4.74-16.7,9.04-35.6,14.14-55.6,14.14-68.02,0-123.17-58.92-123.17-131.6s55.15-131.59,123.17-131.59c5.91,0,11.72.45,17.42,1.31,16.38-52.12,62.48-89.66,116.78-89.66s101.36,38.34,117.29,91.32c8.41-1.95,17.14-2.96,26.1-2.96,68.02,0,123.16,58.92,123.16,131.59Z" style="fill: #e7f4ff;"/>
    <path d="M744.15,587.63c26.37,0,51.47,8.84,72.6,25.57,20.72,16.41,35.82,38.88,43.67,64.99l.29.96.96-.22c8.43-1.95,17.13-2.94,25.87-2.94,32.6,0,63.26,13.57,86.32,38.21,23.07,24.65,35.78,57.43,35.78,92.3s-12.71,67.65-35.78,92.3c-23.06,24.64-53.72,38.21-86.32,38.21-24.52,0-48.16-7.73-68.38-22.37l-.42-.31-.5.15c-28.21,8.58-60.82,13.12-94.32,13.12-19.95,0-39.53-1.59-58.2-4.73l-.35-.06-.32.17c-17.18,9.3-35.72,14.02-55.1,14.02-32.61,0-63.26-13.57-86.32-38.21-23.07-24.65-35.78-57.43-35.78-92.3s12.71-67.65,35.78-92.3c23.06-24.64,53.72-38.21,86.32-38.21,5.76,0,11.57.44,17.26,1.3l.89.13.28-.88c8.08-25.69,23.22-47.77,43.8-63.85,20.99-16.4,45.88-25.06,71.96-25.06M744.15,586.55c-54.3,0-100.4,37.55-116.78,89.66-5.69-.86-11.51-1.31-17.42-1.31-68.02,0-123.17,58.92-123.17,131.59s55.15,131.6,123.17,131.6c20,0,38.9-5.1,55.6-14.14,18.29,3.07,37.93,4.74,58.37,4.74,34.76,0,67.2-4.82,94.62-13.17,19.69,14.25,43.43,22.57,68.99,22.57,68.02,0,123.16-58.92,123.16-131.6s-55.14-131.59-123.16-131.59c-8.96,0-17.69,1.02-26.1,2.96-15.92-52.98-62.41-91.32-117.29-91.32h0Z"/>
  </g>
  <g>
    <path d="M701.61,1271.19c0,82.12-66.19,148.69-147.84,148.69-30.69,0-59.19-9.4-82.82-25.5-32.91,9.43-71.86,14.88-113.58,14.88-24.54,0-48.11-1.89-70.06-5.36-20.05,10.22-42.73,15.98-66.74,15.98-81.65,0-147.84-66.57-147.84-148.69s66.19-148.68,147.84-148.68c7.09,0,14.07.51,20.91,1.48,19.66-58.89,75-101.31,140.17-101.31s121.67,43.32,140.79,103.18c10.1-2.2,20.58-3.35,31.33-3.35,81.65,0,147.84,66.57,147.84,148.68Z" style="fill: #c4ddf3;"/>
    <path d="M381.65,1023.93c31.72,0,61.91,10.01,87.31,28.93,24.88,18.54,43.01,43.93,52.43,73.42l.32,1.01.94-.2c10.14-2.21,20.61-3.33,31.12-3.33,39.21,0,76.07,15.35,103.79,43.23,27.68,27.84,42.93,64.85,42.93,104.2s-15.25,76.37-42.93,104.21c-27.72,27.88-64.58,43.23-103.79,43.23-29.49,0-57.92-8.75-82.24-25.32l-.4-.27-.46.13c-33.89,9.71-73.07,14.84-113.3,14.84-23.96,0-47.48-1.8-69.91-5.35l-.32-.05-.3.15c-20.66,10.53-42.96,15.87-66.28,15.87-39.21,0-76.08-15.35-103.79-43.23-27.69-27.84-42.93-64.85-42.93-104.21s15.25-76.36,42.93-104.2c27.72-27.88,64.58-43.23,103.79-43.23,6.93,0,13.91.49,20.77,1.47l.88.12.31-.93c9.69-29.02,27.87-53.96,52.59-72.13,25.24-18.56,55.17-28.37,86.54-28.37M381.65,1022.68c-65.18,0-120.51,42.42-140.17,101.31-6.83-.97-13.81-1.48-20.91-1.48-81.65,0-147.84,66.57-147.84,148.68s66.19,148.69,147.84,148.69c24.01,0,46.69-5.76,66.74-15.98,21.95,3.47,45.52,5.36,70.06,5.36,41.72,0,80.66-5.45,113.58-14.88,23.63,16.1,52.13,25.5,82.82,25.5,81.65,0,147.84-66.57,147.84-148.69s-66.19-148.68-147.84-148.68c-10.75,0-21.23,1.15-31.33,3.35-19.11-59.86-74.92-103.18-140.79-103.18h0Z"/>
  </g>
  <g>
    <path d="M980.06,1704.99c0,75.19-55.46,136.13-123.87,136.13-25.71,0-49.59-8.61-69.39-23.35-27.58,8.63-60.21,13.62-95.17,13.62-20.56,0-40.31-1.73-58.71-4.91-16.8,9.36-35.8,14.63-55.92,14.63-68.42,0-123.88-60.95-123.88-136.13s55.46-136.13,123.88-136.13c5.94,0,11.79.46,17.52,1.35,16.47-53.92,62.84-92.76,117.45-92.76s101.95,39.67,117.97,94.47c8.46-2.01,17.24-3.07,26.25-3.07,68.42,0,123.87,60.95,123.87,136.13Z" style="fill: #e7f4ff;"/>
    <path d="M711.97,1478.58c26.52,0,51.77,9.15,73.02,26.45,20.84,16.97,36.03,40.22,43.93,67.23l.29.99.97-.23c8.48-2.02,17.23-3.04,26.01-3.04,32.79,0,63.63,14.04,86.82,39.53,23.21,25.5,35.99,59.41,35.99,95.48s-12.78,69.99-35.99,95.49c-23.19,25.49-54.03,39.53-86.82,39.53-24.66,0-48.44-8-68.77-23.14l-.42-.32-.5.16c-28.37,8.88-61.17,13.57-94.86,13.57-20.06,0-39.76-1.65-58.53-4.89l-.36-.06-.32.18c-17.28,9.62-35.92,14.5-55.42,14.5-32.79,0-63.63-14.04-86.82-39.53-23.21-25.5-35.99-59.41-35.99-95.49s12.78-69.98,35.99-95.48c23.19-25.49,54.03-39.53,86.82-39.53,5.79,0,11.63.45,17.36,1.34l.9.14.28-.91c8.12-26.58,23.36-49.42,44.06-66.05,21.12-16.96,46.14-25.93,72.38-25.93M711.97,1477.45c-54.61,0-100.98,38.84-117.45,92.76-5.73-.89-11.57-1.35-17.52-1.35-68.42,0-123.88,60.95-123.88,136.13s55.46,136.13,123.88,136.13c20.12,0,39.12-5.27,55.92-14.63,18.39,3.18,38.15,4.91,58.71,4.91,34.96,0,67.59-4.99,95.17-13.62,19.8,14.74,43.68,23.35,69.39,23.35,68.42,0,123.87-60.95,123.87-136.13s-55.46-136.13-123.87-136.13c-9.01,0-17.79,1.05-26.25,3.07-16.02-54.8-62.77-94.47-117.97-94.47h0Z"/>
  </g>
  <g>
    <ellipse cx="566.76" cy="2432" rx="571.21" ry="111.83" style="fill: #3b8b66;"/>
    <path d="M566.76,2321.17c152.56,0,295.99,11.63,403.86,32.75,52.44,10.27,93.6,22.22,122.35,35.53,36.78,17.02,44.5,32.54,44.5,42.56s-7.72,25.53-44.5,42.56c-28.75,13.31-69.91,25.26-122.35,35.53-107.87,21.12-251.3,32.75-403.86,32.75s-295.99-11.63-403.86-32.75c-52.44-10.27-93.6-22.22-122.35-35.53-36.78-17.02-44.5-32.54-44.5-42.56s7.72-25.53,44.5-42.56c28.75-13.31,69.91-25.26,122.35-35.53,107.87-21.12,251.3-32.75,403.86-32.75M566.76,2320.17c-315.47,0-571.21,50.07-571.21,111.83s255.74,111.83,571.21,111.83,571.21-50.07,571.21-111.83-255.74-111.83-571.21-111.83h0Z"/>
  </g>
</svg>