<?xml version="1.0" encoding="UTF-8"?>
<svg id="Layer_3" data-name="Layer 3" xmlns="http://www.w3.org/2000/svg" xmlns:xlink="http://www.w3.org/1999/xlink" viewBox="0 0 1917.96 1081.16">
  <defs>
    <clipPath id="clippath-1">
      <rect x="3.43" y="1.16" width="1920" height="1080" style="fill: none;"/>
    </clipPath>
    <radialGradient id="radial-gradient" cx="963.43" cy="541.16" fx="963.43" fy="1102.41" r="778.37" gradientTransform="translate(-14.46)" gradientUnits="userSpaceOnUse">
      <stop offset=".23" stop-color="#854567"/>
      <stop offset="1" stop-color="#400059"/>
    </radialGradient>
    <radialGradient id="radial-gradient-2" cx="154.07" cy="142.83" fx="154.07" fy="142.83" r="67.69" gradientTransform="translate(-14.46)" gradientUnits="userSpaceOnUse">
      <stop offset=".23" stop-color="#e5ee00"/>
      <stop offset="1" stop-color="#fffde0"/>
    </radialGradient>
    <radialGradient id="radial-gradient-3" cx="1591.83" cy="128.36" fx="1591.83" fy="128.36" r="51.41" xlink:href="#radial-gradient-2"/>
    <radialGradient id="radial-gradient-4" cx="1808.53" cy="398.02" fx="1808.53" fy="398.02" r="46.16" xlink:href="#radial-gradient-2"/>
    <radialGradient id="radial-gradient-5" cx="624.8" cy="88.65" fx="624.8" fy="88.65" r="39.2" xlink:href="#radial-gradient-2"/>
    <radialGradient id="radial-gradient-6" cx="214.52" cy="505.78" fx="214.52" fy="505.78" r="33.18" xlink:href="#radial-gradient-2"/>
    <radialGradient id="radial-gradient-7" cx="1116.5" cy="87.79" fx="1116.5" fy="87.79" r="57.67" xlink:href="#radial-gradient-2"/>
    <radialGradient id="radial-gradient-8" cx="1592.12" cy="660" fx="1592.12" fy="660" r="33.09" xlink:href="#radial-gradient-2"/>
    <radialGradient id="radial-gradient-9" cx="1843.96" cy="27.85" fx="1843.96" fy="27.85" r="25.7" xlink:href="#radial-gradient-2"/>
  </defs>
  <g style="clip-path: url(#clippath-1);">
    <g>
      <rect x="-10.51" y="1.67" width="1932.75" height="1082.5" style="fill: url(#radial-gradient);"/>
      <path d="M1921.74,2.17v1081.5H-10.01V2.17h1931.75M1922.74,1.17H-11.01v1083.5h1933.75V1.17h0Z"/>
    </g>
    <path d="M-5.03,1154.94c182.3,46.02,538.1,77.27,947.16,77.27,594.78,0,1076.94-66.06,1076.94-147.54s-482.16-147.54-1076.94-147.54c-395.38,0-740.98,29.19-928.27,72.7,1.01,3.29-1.61,7.73-6,6.61-3.21-.82-6.38-1.8-9.53-2.88-1.36.34-2.71.68-4.05,1.02-2.58,25.1-5.35,50.21-5.74,75.45-.33,21.96,1.57,43.69,6.42,64.92" style="fill: #27634e;"/>
    <g>
      <polygon points="117.47 159.17 71.91 132.58 124.46 127.41 135.78 76.02 156.95 124.22 209.51 119.06 170.03 154.01 191.21 202.21 145.64 175.61 106.16 210.56 117.47 159.17" style="fill: url(#radial-gradient-2);"/>
      <path d="M135.93,77.63l20.41,46.47.29.66.72-.07,50.66-4.98-38.04,33.69-.55.48.29.67,20.41,46.46-43.93-25.64-.63-.36-.54.48-38.06,33.7,10.9-49.54.16-.71-.63-.37-43.92-25.63,50.66-4.98.72-.07.16-.71,10.9-49.54M135.62,74.42l-11.56,52.54-53.73,5.28,46.59,27.19-11.56,52.54,40.36-35.73,46.59,27.19-21.65-49.27,40.36-35.73-53.73,5.28-21.65-49.27h0Z"/>
    </g>
    <g>
      <polygon points="1570.65 140.8 1536.37 119.96 1576.4 116.75 1585.71 77.83 1601.14 114.77 1641.17 111.56 1610.68 137.59 1626.11 174.52 1591.83 153.68 1561.34 179.72 1570.65 140.8" style="fill: url(#radial-gradient-3);"/>
      <path d="M1585.84,79.44l14.71,35.19.28.67.72-.06,38.13-3.06-29.04,24.79-.55.47.28.67,14.7,35.18-32.66-19.86-.62-.38-.55.47-29.05,24.8,8.86-37.07.17-.71-.62-.38-32.65-19.85,38.13-3.06.72-.06.17-.71,8.87-37.08M1585.58,76.22l-9.58,40.06-41.21,3.3,35.29,21.45-9.58,40.06,31.39-26.8,35.29,21.45-15.89-38.02,31.39-26.8-41.21,3.3-15.89-38.02h0Z"/>
    </g>
    <g>
      <polygon points="1805.06 422.1 1774.67 441.57 1787.77 408.02 1759.8 385.24 1795.87 387.29 1808.98 353.74 1818.17 388.56 1854.24 390.61 1823.85 410.07 1833.04 444.88 1805.06 422.1" style="fill: url(#radial-gradient-4);"/>
      <path d="M1808.89,355.35l8.71,32.98.19.7.72.04,34.17,1.94-28.79,18.43-.61.39.19.7,8.71,32.97-26.51-21.58-.56-.46-.61.39-28.8,18.44,12.41-31.77.27-.68-.57-.46-26.5-21.57,34.17,1.94.72.04.26-.68,12.42-31.78M1809.07,352.13l-13.53,34.64-37.25-2.12,28.89,23.52-13.53,34.64,31.39-20.1,28.89,23.52-9.49-35.95,31.39-20.1-37.25-2.12-9.49-35.95h0Z"/>
    </g>
    <g>
      <polygon points="604.55 98.37 575.96 87.27 605.63 79.51 607.39 48.99 623.98 74.71 653.66 66.95 634.23 90.61 650.81 116.33 622.22 105.23 602.78 128.89 604.55 98.37" style="fill: url(#radial-gradient-5);"/>
      <path d="M607.81,50.55l15.56,24.13.39.61.7-.18,27.84-7.28-18.22,22.18-.46.56.4.61,15.55,24.12-26.82-10.41-.68-.26-.46.56-18.23,22.19,1.65-28.62.04-.73-.68-.26-26.81-10.41,27.83-7.28.7-.18.04-.73,1.65-28.63M606.98,47.43l-1.83,31.69-30.82,8.06,29.69,11.52-1.83,31.69,20.18-24.57,29.69,11.52-17.22-26.71,20.18-24.57-30.82,8.06-17.22-26.71h0Z"/>
    </g>
    <g>
      <polygon points="194.57 520.8 170.01 529.49 184.76 508.08 168.88 487.5 193.87 494.85 208.62 473.45 209.32 499.4 234.31 506.76 209.75 515.44 210.45 541.39 194.57 520.8" style="fill: url(#radial-gradient-6);"/>
      <path d="M208.16,474.99l.65,24.06.02.73.7.21,23.16,6.82-22.76,8.04-.69.24.02.73.65,24.06-14.72-19.09-.44-.57-.68.24-22.77,8.05,13.67-19.84.41-.6-.45-.58-14.71-19.08,23.17,6.82.69.2.41-.6,13.68-19.85M209.08,471.9l-15.42,22.37-26.12-7.69,16.6,21.52-15.42,22.37,25.67-9.07,16.6,21.52-.73-27.13,25.67-9.07-26.12-7.69-.73-27.13h0Z"/>
    </g>
    <g>
      <polygon points="1100.28 112.65 1058.77 130.06 1082.08 91.67 1052.63 57.73 1096.48 67.95 1119.8 29.55 1123.59 74.26 1167.44 84.48 1125.94 101.89 1129.73 146.6 1100.28 112.65" style="fill: url(#radial-gradient-7);"/>
      <path d="M1119.43,31.12l3.64,42.82.06.72.71.16,41.99,9.79-39.75,16.67-.67.28.06.73,3.64,42.82-28.21-32.52-.47-.55-.67.28-39.76,16.67,22.32-36.76.38-.62-.48-.55-28.2-32.5,42,9.79.71.16.38-.62,22.33-36.77M1120.16,27.98l-23.92,39.39-45-10.49,30.22,34.83-23.92,39.39,42.6-17.87,30.22,34.83-3.89-45.88,42.6-17.87-45-10.49-3.89-45.88h0Z"/>
    </g>
    <g>
      <polygon points="1577.7 669.9 1555.43 656.9 1581.12 654.37 1586.65 629.25 1597 652.81 1622.7 650.29 1603.4 667.37 1613.75 690.93 1591.47 677.93 1572.17 695.02 1577.7 669.9" style="fill: url(#radial-gradient-8);"/>
      <path d="M1586.81,630.85l9.59,21.83.29.66.72-.07,23.8-2.34-17.87,15.82-.55.48.29.67,9.59,21.82-20.64-12.04-.62-.36-.54.48-17.88,15.83,5.12-23.27.16-.71-.63-.37-20.63-12.04,23.79-2.34.72-.07.16-.71,5.12-23.27M1586.49,627.64l-5.78,26.27-26.87,2.64,23.29,13.59-5.78,26.27,20.18-17.87,23.29,13.59-10.82-24.64,20.18-17.87-26.87,2.64-10.82-24.64h0Z"/>
    </g>
    <g>
      <polygon points="1836.85 38.08 1817.63 44.42 1829.44 28.04 1817.46 11.78 1836.75 17.92 1848.57 1.54 1848.67 21.71 1867.95 27.84 1848.73 34.17 1848.84 54.34 1836.85 38.08" style="fill: url(#radial-gradient-9);"/>
      <path d="M1848.07,3.07l.09,18.27v.73s.7.22.7.22l17.47,5.55-17.41,5.73-.69.23v.73s.1,18.27.1,18.27l-10.86-14.73-.43-.58-.69.23-17.42,5.74,10.7-14.83.43-.59-.43-.59-10.85-14.72,17.47,5.56.69.22.42-.59,10.71-14.84M1849.06,0l-12.5,17.33-20.41-6.49,12.68,17.2-12.5,17.33,20.34-6.7,12.68,17.2-.11-21.34,20.34-6.7-20.41-6.49-.11-21.34h0Z"/>
    </g>
  </g>
</svg>