<?xml version="1.0" encoding="UTF-8"?>
<svg xmlns="http://www.w3.org/2000/svg" xmlns:xlink="http://www.w3.org/1999/xlink" viewBox="0 0 2644.31 1529">
  <defs>
    <clipPath id="clippath">
      <rect x=".02" y="0" width="2644.27" height="1529" style="fill: none;"/>
    </clipPath>
    <radialGradient id="radial-gradient" cx="1728.9" cy="933.05" fx="1586.33" fy="1942.85" r="1019.81" gradientTransform="translate(-692.89 -277.95) scale(1.38 1.42)" gradientUnits="userSpaceOnUse">
      <stop offset=".48" stop-color="#bec188"/>
      <stop offset="1" stop-color="#d6b1ff"/>
    </radialGradient>
  </defs>
  <g id="Layer_1" data-name="Layer 1">
    <path d="M.04,183.29c1.93,0,1.93-3,0-3s-1.93,3,0,3H.04Z"/>
  </g>
  <g id="Layer_5" data-name="Layer 5">
    <g style="clip-path: url(#clippath);">
      <rect x=".72" y="2.52" width="2642.86" height="1523.95" style="fill: url(#radial-gradient); stroke: #000; stroke-miterlimit: 10;"/>
      <ellipse cx="1011.06" cy="1073.72" rx="198.43" ry="164.64" style="fill: #ffc94f; stroke: #000; stroke-miterlimit: 10;"/>
      <ellipse cx="444.66" cy="1546.81" rx="683.93" ry="668.37" style="fill: #64a69a; stroke: #000; stroke-miterlimit: 10;"/>
      <ellipse cx="1990.68" cy="1529" rx="1004.79" ry="957.42" style="fill: #3b8b66; stroke: #000; stroke-miterlimit: 10;"/>
      <g>
        <g id="Layer_1-2" data-name="Layer 1">
          <g>
            <ellipse cx="987.79" cy="1031.19" rx="385.81" ry="349.82" transform="translate(-36.1 35.83) rotate(-2.04)" style="fill: none;"/>
            <path d="M723.78,749.69c-4.45-5.08-9.8-11.21-13.47-16.01l-.17.14c2.22,5.58,4.4,11.68,6.64,18.58l7.9,24.23-3.67,3.16-20.31-12.98c-6-3.85-11.36-7.49-15.97-11.11l-.11.1c3.62,4.85,8.35,11.5,12.51,17.51l11.83,17.24-4.61,3.97-27.31-40.45,6.18-5.31,20.87,12.97c5.24,3.36,9.81,6.46,13.86,9.61l.17-.14c-2.08-4.67-4.03-10.01-6.13-16.26l-7.8-24.22,6.18-5.31,32.26,36.19-4.72,4.06-14.09-15.97h-.02Z" style="fill: #c4ddf3;"/>
            <path d="M732.3,714.86c1.23,1.78.85,4.17-1.24,5.64-1.86,1.3-4.11.76-5.28-1.07-1.2-1.89-.76-4.31,1.15-5.66,1.98-1.39,4.16-.8,5.37,1.09h0ZM750.59,756.74l-18.85-29.48,5.26-3.69,18.85,29.48-5.26,3.69Z" style="fill: #c4ddf3;"/>
            <path d="M748.31,704.12l5,8.74,7.78-4.88,2.41,4.22-7.78,4.88,9.39,16.41c2.16,3.77,4.43,5.25,7.45,3.35,1.42-.9,2.36-1.74,2.93-2.35l2.62,4c-.8,1.1-2.28,2.47-4.38,3.77-2.53,1.59-5.04,2.05-7.2,1.36-2.48-.66-4.58-3.02-6.64-6.61l-9.5-16.6-4.63,2.91-2.41-4.22,4.63-2.91-4.17-7.29,4.48-4.78h.02Z" style="fill: #c4ddf3;"/>
            <path d="M797.06,727.75l-19.15-45.15,6.25-2.91,23.9,16.24c5.53,3.77,10.11,7.33,14.18,10.97l.1-.13c-3.09-5.79-5.54-11.22-8.53-18.25l-8.01-18.89,5.4-2.51,19.15,45.15-5.79,2.7-23.79-16.36c-5.22-3.58-10.37-7.37-14.68-11.22l-.17.16c2.75,5.54,5.17,10.91,8.36,18.41l8.18,19.3-5.4,2.51v-.02Z" style="fill: #c4ddf3;"/>
            <path d="M857.69,702.49l-1.83-4.07-.2.07c-1,3.28-3.79,6.89-8.5,8.54-6.68,2.34-11.63-1.26-13.19-6.12-2.6-8.14,3.08-15.07,15.85-19.47l-.22-.69c-.89-2.78-3.24-7.52-9.99-5.16-3.07,1.08-5.96,3.18-7.79,5.52l-2.66-3.55c2.15-2.76,5.74-5.33,9.89-6.79,10.1-3.54,14.8,2.62,16.95,9.37l4.02,12.59c.93,2.92,1.98,5.72,3.12,7.88l-5.46,1.92h0ZM851.31,685.62c-6.6,2.16-13.66,5.94-11.57,12.48,1.27,3.97,4.46,4.93,7.53,3.85,4.3-1.51,6.14-5.25,6.19-8.43,0-.7-.08-1.44-.28-2.07l-1.87-5.84h0Z" style="fill: #c4ddf3;"/>
            <path d="M865.13,663.17l11.25,17.6c1.87,2.84,3.46,5.44,4.83,8.11l.21-.06c.09-3.04.39-6.14.75-9.57l1.94-21.07,6.42-1.69-5.04,37.9-5.86,1.54-21.07-31.06,6.56-1.72h0Z" style="fill: #c4ddf3;"/>
            <path d="M899.71,664.41c-.57-3.62-1.1-6.57-1.76-9.43l5.54-.95,1.26,5.73.14-.03c1.19-3.62,4.65-7.56,10.33-8.53,4.76-.82,12.59.81,14.48,12.83l3.26,20.91-6.25,1.07-3.15-20.18c-.88-5.64-3.68-10-9.57-8.98-4.12.7-6.85,4.22-7.36,7.94-.16.85-.13,1.95.04,3.04l3.29,21.05-6.25,1.07-3.99-25.54h0Z" style="fill: #c4ddf3;"/>
            <path d="M959.84,665.72c.52,8.71,6.15,12.04,12.47,11.73,4.53-.22,7.22-1.16,9.55-2.29l1.28,4.56c-2.19,1.14-5.94,2.48-11.47,2.75-10.71.51-17.42-6.36-17.89-17.04-.47-10.69,5.34-19.41,15.48-19.9,11.36-.55,14.82,9.49,15.11,16,.06,1.32-.04,2.35-.08,3.01l-24.44,1.17h0ZM978.17,660.21c-.11-4.1-2.11-10.39-9.23-10.05-6.4.31-8.93,6.45-9.25,10.94,0,0,18.47-.89,18.47-.89Z" style="fill: #c4ddf3;"/>
            <path d="M992.72,656.87c.07-4.18.06-7.77-.1-11.07l5.54.11.09,6.97h.28c1.66-4.73,5.53-7.67,9.77-7.58.72,0,1.22.1,1.79.25l-.1,6.09c-.64-.16-1.3-.24-2.15-.26-4.46-.09-7.68,3.3-8.63,8.12-.16.88-.32,1.9-.34,2.99l-.32,18.91-6.26-.12.42-24.41h0Z" style="fill: #c4ddf3;"/>
            <path d="M1045.09,635.05l6.22.69-3.35,32.88c-1.32,13.05-8.03,16.35-16.33,15.43-2.29-.26-5.03-1.08-6.53-1.91l1.45-5.07c1.24.65,3.05,1.3,5.13,1.53,5.58.63,9.13-1.56,10.11-11.18l3.29-32.37h0Z" style="fill: #c4ddf3;"/>
            <path d="M1085.93,681.97c-.62,3.61-1.1,6.8-1.37,9.57l-5.52-1.05.63-5.77-.14-.03c-2.11,2.5-6.37,5.49-12.45,4.33-5.38-1.02-11.3-5.28-9.16-17.55l3.55-20.42,6.23,1.18-3.35,19.33c-1.15,6.63.06,11.49,5.72,12.57,4.17.8,7.59-1.61,9.21-4.21.51-.87.93-1.98,1.13-3.14l3.72-21.43,6.23,1.18-4.41,25.39v.02Z" style="fill: #c4ddf3;"/>
            <path d="M1105.75,643.49l6.14,1.6-11.99,50.52-6.14-1.6s11.99-50.52,11.99-50.52Z" style="fill: #c4ddf3;"/>
            <path d="M1109.74,698.39l9.44-34.08,6.08,1.85-9.44,34.08-6.08-1.85ZM1128.6,656.79c-.51,2.14-2.5,3.36-4.93,2.63-2.14-.65-3.19-2.8-2.61-4.91.61-2.19,2.67-3.39,4.87-2.72,2.28.69,3.26,2.82,2.66,5.01h0Z" style="fill: #c4ddf3;"/>
            <path d="M1133.86,688.74c-2.67,8.26,1.32,13.58,7.28,15.82,4.26,1.6,7.1,1.81,9.67,1.69l-.47,4.73c-2.43.18-6.4-.07-11.62-2.02-10.09-3.78-13.8-12.82-10.37-22.89s11.98-15.83,21.53-12.25c10.7,4.02,10.27,14.68,8.17,20.82-.42,1.24-.89,2.16-1.17,2.75l-23.03-8.65h0ZM1152.82,690.96c1.39-3.84,1.82-10.46-4.89-12.97-6.03-2.26-10.61,2.41-12.52,6.44l17.41,6.54h0Z" style="fill: #c4ddf3;"/>
            <path d="M1217.59,722.79c2.79-6.25,6.16-13.76,9-19.15l-.19-.11c-4.07,4.29-8.63,8.72-13.86,13.51l-18.36,16.88-4.18-2.35,3.71-24.62c1.11-7.28,2.28-13.86,3.72-19.7l-.13-.07c-2.9,5.35-6.97,12.48-10.69,18.79l-10.71,18.03-5.27-2.96,25.28-41.86,7.04,3.96-3.5,25.15c-.97,6.36-1.96,11.96-3.2,17.08l.19.11c3.33-3.78,7.3-7.71,12.01-12.13l18.4-16.78,7.04,3.96-19.64,45.04-5.39-3.03,8.71-19.72h0Z" style="fill: #c4ddf3;"/>
            <path d="M1258.86,737.41l4.89-1.76,1.2,3.31-4.97,1.89c.95,4.74-.16,9.76-3.19,14.25-7.19,10.65-17.61,10.03-24.25,5.11-2.65-1.95-4.79-4.54-5.91-7.43l-4.99,1.78-.97-3.41,4.89-1.76c-.98-4.68-.05-9.73,3.15-14.45,6.51-9.64,16.57-10.71,24.32-4.97,2.58,1.92,4.62,4.51,5.81,7.44h0ZM1254.08,739.26c-.57-2.03-1.76-3.91-3.82-5.43-6.34-4.7-12.91-.59-16.47,4.68-1.7,2.51-2.83,5.62-2.78,8.81l.07.14,22.99-8.2h0ZM1231.41,750.92c.54,2.2,1.87,3.9,3.63,5.2,5.4,4.01,12.18,1.93,16.58-4.59,1.33-1.97,2.76-5.13,2.77-8.54l-.12-.09-22.87,8.02h0Z" style="fill: #c4ddf3;"/>
            <path d="M1267.13,755.96c2.56-3.21,4.71-6.01,6.56-8.68l4.25,3.73-4.11,5.48.22.19c4.14-2.59,8.9-2.32,12.15.53.55.48.89.88,1.24,1.38l-3.73,4.66c-.4-.55-.85-1.04-1.52-1.62-3.42-3-7.96-2.49-11.58.64-.65.58-1.39,1.27-2.07,2.11l-11.6,14.5-4.8-4.22,14.96-18.71h.02Z" style="fill: #c4ddf3;"/>
            <path d="M1286.89,781.09l.1.11c1.45-.26,3.35-.46,4.91-.61l15.48-1.25,5.45,5.59-19.36.55-3.01,26.16-5.5-5.64,2.78-20.96-4.76.24-8.92,9.53-4.47-4.59,34.79-37.17,4.47,4.59-21.95,23.46h-.02Z" style="fill: #c4ddf3;"/>
          </g>
        </g>
        <g id="Layer_2-2" data-name="Layer 2">
          <g>
            <ellipse cx="983.57" cy="1032.66" rx="384.43" ry="351.33" transform="translate(-37.15 36.71) rotate(-2.1)" style="fill: none;"/>
            <path d="M658.88,953.8l-1.99,6.19-30.05-10.55c-11.93-4.19-13.58-11.75-10.95-20,.73-2.28,2.09-4.89,3.19-6.25l4.44,2.59c-.87,1.12-1.87,2.83-2.53,4.89-1.77,5.56-.5,9.65,8.3,12.74l29.59,10.39h0Z" style="fill: #c4ddf3;"/>
            <path d="M622.95,965c-8.22-1.66-12.7,3.19-14.01,9.66-.93,4.63-.74,7.59-.26,10.23l-4.56.14c-.51-2.49-.82-6.63.31-12.29,2.21-10.95,10.26-16,20.29-13.79,10.04,2.21,16.67,10.28,14.6,20.65-2.33,11.61-12.52,12.6-18.63,11.25-1.24-.27-2.17-.64-2.78-.85l5.03-24.99h0ZM623.48,984.91c3.83.92,10.17.48,11.64-6.8,1.31-6.54-3.75-10.65-7.84-12.1l-3.8,18.89Z" style="fill: #c4ddf3;"/>
            <path d="M632.76,1032.92c-2.44-.32-5.17-.65-9.31-.93l-19.71-1.33c-7.78-.53-12.45-2.49-15.18-6.22-2.87-3.74-3.54-8.9-3.25-13.47.27-4.35,1.54-9.08,3.55-11.88l4.6,1.96c-1.55,2.3-3.04,5.97-3.32,10.47-.41,6.75,2.57,11.91,11.13,12.5l3.79.26v-.15c-3.02-2.23-5.3-6.31-4.96-11.93.55-8.99,8.11-14.96,17.5-14.32,11.51.78,17.53,9.24,17.02,17.56-.39,6.3-3.69,9.53-6.59,10.92v.15l5.09.65-.36,5.77h0ZM619.78,1025.2c1.05.07,1.97.06,2.83-.18,3.65-.95,6.79-3.99,7.1-8.78.39-6.3-4.31-11.13-12.17-11.66-6.66-.45-12.43,2.77-12.87,9.89-.25,4.04,1.91,7.89,5.74,9.57,1.03.44,2.22.67,3.26.75,0,0,6.1.41,6.1.41Z" style="fill: #c4ddf3;"/>
            <path d="M616.36,1064.83c-8.27,1.33-10.95,7.47-10.1,14.02.61,4.69,1.74,7.41,3.03,9.73l-4.25,1.74c-1.28-2.17-2.9-5.96-3.64-11.69-1.43-11.09,4.53-18.68,14.7-20.14,10.17-1.44,19.01,3.82,20.37,14.32,1.53,11.76-7.76,16.26-13.95,17.14-1.25.17-2.25.16-2.89.18l-3.27-25.31h0ZM623.24,1083.41c3.91-.48,9.74-3.13,8.79-10.5-.85-6.63-6.95-8.71-11.26-8.64l2.47,19.13Z" style="fill: #c4ddf3;"/>
            <path d="M629.23,1098.03c3.89-1.03,7.21-1.98,10.22-3l1.35,5.6-6.42,1.93.07.29c4.82.43,8.54,3.55,9.57,7.86.17.73.23,1.26.23,1.88l-5.65,1.49c-.02-.69-.11-1.37-.32-2.24-1.08-4.52-5.05-6.88-9.77-6.56-.85.07-1.84.17-2.87.44l-17.58,4.64-1.53-6.34,22.69-5.99h0Z" style="fill: #c4ddf3;"/>
            <path d="M622.45,1155.6l37.13-34.98,2.69,6.47-18.38,17c-5.04,4.67-9.6,8.8-14.17,12.36l.06.13c5.57-.98,11.85-1.56,18.37-2.08l24.72-1.94,2.67,6.4-50.32,3.22-2.75-6.62-.02.02Z" style="fill: #c4ddf3;"/>
            <path d="M650.94,1179.27c-7.11,4.61-7.28,11.36-4.05,17.04,2.31,4.06,4.37,6.11,6.42,7.7l-3.25,3.34c-1.99-1.47-4.89-4.29-7.72-9.26-5.47-9.62-2.81-19.06,6-24.56,8.81-5.5,18.91-4.29,24.09,4.81,5.8,10.2-1.06,18.14-6.43,21.5-1.08.68-2,1.08-2.58,1.35l-12.47-21.95h0ZM664.2,1193.54c3.42-2.04,7.79-6.88,4.16-13.26-3.26-5.74-9.65-5.17-13.58-3.32l9.43,16.58h0Z" style="fill: #c4ddf3;"/>
            <path d="M714.27,1212.38l-32.32,26.61c-2.38,1.95-5.04,4.25-6.73,5.92l-3.5-4.66,4.47-4.05-.09-.12c-4.18.86-9.06-.76-12.55-5.42-5.18-6.91-3.69-16.74,4.43-23.42,8.85-7.39,18.75-5.98,23.98.99,3.28,4.37,3.56,8.92,2.37,11.99l.09.12,15.97-13.14,3.9,5.2h0ZM686.99,1226.42c.61-.5,1.4-1.24,1.87-1.92,2.52-3.31,2.93-8.24,0-12.14-4.03-5.37-10.85-4.93-16.76-.06-5.41,4.46-7.77,10.98-3.56,16.59,2.61,3.49,7.16,4.9,11.52,2.84.8-.37,1.51-.86,2.28-1.49l4.64-3.82h0Z" style="fill: #c4ddf3;"/>
            <path d="M710.33,1281.56l2.52-3.68-.16-.15c-3.23.7-7.59-.08-11.25-3.57-5.19-4.96-4.58-11.25-1.27-15.05,5.53-6.37,14.08-4.59,23.94,4.92l.48-.55c1.89-2.18,4.71-6.65-.53-11.66-2.38-2.27-5.54-3.89-8.38-4.42l1.68-4.17c3.35.61,7.23,2.62,10.46,5.7,7.84,7.48,4.97,14.8.38,20.09l-8.57,9.85c-1.99,2.28-3.82,4.62-5.06,6.72l-4.24-4.04v.02ZM721.33,1267.45c-4.99-4.97-11.57-9.55-16.02-4.44-2.7,3.1-1.96,6.49.42,8.77,3.34,3.19,7.35,3.03,10.04,1.51.59-.34,1.17-.78,1.59-1.27l3.98-4.57h0Z" style="fill: #c4ddf3;"/>
            <path d="M756.51,1261.76l-5.94,8.13,7.18,5.75-2.86,3.92-7.18-5.75-11.15,15.26c-2.56,3.51-3.04,6.27-.26,8.51,1.31,1.05,2.41,1.65,3.16,1.97l-2.59,4.04c-1.27-.37-3.01-1.31-4.95-2.86-2.33-1.87-3.66-4.14-3.83-6.5-.31-2.66,1.01-5.59,3.45-8.92l11.28-15.44-4.27-3.42,2.86-3.92,4.27,3.42,4.95-6.78,5.88,2.58h0Z" style="fill: #c4ddf3;"/>
            <path d="M782.26,1277.05c2.65.91,6.58,2.77,10.38,5.05,5.41,3.25,8.36,6.31,9.79,10.04,1.27,2.97,1.18,6.31-.68,9.7-2.27,4.15-6.94,6.18-12.26,5.19l-.07.13c3.42,3.42,6.23,9.6,2.73,15.99-2.03,3.71-5,5.65-8.26,6.49-4.43.99-9.85-.58-16.69-4.69-3.73-2.24-6.45-4.22-8.12-5.56l23.19-42.34h0ZM766.72,1318.56c.96.83,2.47,1.83,4.4,2.99,5.6,3.36,11.91,4.36,15.34-1.9,3.22-5.87-.37-11.26-6.27-14.81l-4.48-2.69-8.99,16.41h0ZM778.01,1297.93l4.91,2.96c5.72,3.44,10.75,2.39,13.03-1.76,2.77-5.05.12-9.26-5.36-12.56-2.49-1.49-4.03-2.17-5-2.49l-7.59,13.86h0Z" style="fill: #c4ddf3;"/>
            <path d="M816.37,1292.82l5.7,2.84-21.48,47.19-5.7-2.84,21.48-47.19h0Z" style="fill: #c4ddf3;"/>
            <path d="M811.5,1347.99l13.23-32.83,5.81,2.57-13.23,32.83-5.81-2.57ZM834.93,1308.81c-.75,2.06-2.87,3.05-5.17,2.02-2.05-.91-2.84-3.18-2.02-5.21.85-2.1,3.02-3.06,5.14-2.12,2.18.96,2.91,3.21,2.06,5.31h0Z" style="fill: #c4ddf3;"/>
            <path d="M842.28,1322.69l.2,21.26c.07,3.46.04,6.56-.2,9.59l.2.08c1.66-2.51,3.53-4.96,5.62-7.63l12.61-16.63,6.23,2.25-23.98,29.02-5.69-2.06-1.37-38.2,6.37,2.3h0Z" style="fill: #c4ddf3;"/>
            <path d="M870.68,1352.21c-1.87,8.54,2.57,13.41,8.7,15.01,4.38,1.15,7.21,1.05,9.74.65l-.03,4.78c-2.39.44-6.35.63-11.71-.77-10.37-2.7-14.9-11.32-12.42-21.75,2.47-10.43,10.41-17.09,20.22-14.53,10.99,2.86,11.56,13.56,10.05,19.91-.3,1.28-.68,2.25-.9,2.88l-23.66-6.16h0ZM889.7,1352.38c1.02-3.99.83-10.63-6.07-12.43-6.19-1.61-10.29,3.53-11.82,7.77l17.89,4.66h0Z" style="fill: #c4ddf3;"/>
            <path d="M922.49,1363.31c-.83,8.72,4.19,12.96,10.46,13.73,4.49.55,7.28.08,9.74-.66l.56,4.74c-2.33.75-6.22,1.46-11.71.8-10.61-1.29-16.15-9.24-14.96-19.91,1.19-10.68,8.24-18.34,18.29-17.12,11.25,1.37,13.12,11.9,12.39,18.41-.15,1.32-.4,2.32-.54,2.98l-24.21-2.96h-.02ZM941.37,1360.95c.52-4.08-.48-10.66-7.53-11.52-6.34-.77-9.78,4.88-10.77,9.28l18.3,2.23Z" style="fill: #c4ddf3;"/>
            <path d="M956.22,1357.56c.08-3.68.08-6.7-.07-9.65l5.59.13.23,5.9h.15c1.8-3.34,5.88-6.56,11.62-6.41,4.8.12,12.19,3.25,11.91,15.48l-.48,21.27-6.3-.15.46-20.54c.13-5.74-1.84-10.58-7.79-10.73-4.15-.11-7.45,2.83-8.6,6.41-.3.8-.48,1.91-.5,3l-.49,21.43-6.3-.15.59-25.99h0Z" style="fill: #c4ddf3;"/>
            <path d="M1053.12,1356.14c-1.21-6.82-2.67-15-3.36-21.15l-.21.03c-.91,5.99-2.14,12.39-3.7,19.52l-5.48,25.04-4.69.65-10.68-22.37c-3.14-6.63-5.85-12.71-7.93-18.37l-.14.02c.62,6.15,1.31,14.45,1.79,21.88l1.36,21.27-5.9.81-2.81-49.67,7.89-1.08,11.15,22.68c2.75,5.79,5.05,10.97,6.9,15.91l.21-.03c.59-5.13,1.62-10.77,2.98-17.27l5.55-24.97,7.89-1.08,9.14,48.8-6.04.83-3.91-21.45Z" style="fill: #c4ddf3;"/>
            <path d="M1101.79,1356.54c.87,3.56,1.71,6.68,2.58,9.34l-5.41,1.45-1.73-5.54-.14.04c-.92,3.21-3.57,7.8-9.54,9.41-5.28,1.42-12.33.13-15.3-12.01l-4.94-20.18,6.11-1.65,4.68,19.12c1.61,6.57,4.63,10.47,10.19,8.97,4.1-1.1,6.23-4.8,6.65-7.87.12-1.02.05-2.21-.23-3.36l-5.18-21.19,6.11-1.65,6.15,25.1h0Z" style="fill: #c4ddf3;"/>
            <path d="M1100.24,1312.24l5.98-2.1,15.83,49.57-5.98,2.1-15.83-49.57Z" style="fill: #c4ddf3;"/>
            <path d="M1124.55,1309.85l3.58,9.52,8.4-3.47,1.73,4.59-8.4,3.47,6.72,17.88c1.54,4.11,3.56,5.97,6.82,4.62,1.53-.64,2.59-1.31,3.24-1.81l1.97,4.41c-.96.94-2.63,2.03-4.89,2.97-2.74,1.13-5.28,1.15-7.29.08-2.33-1.1-4.04-3.79-5.51-7.69l-6.8-18.08-5,2.06-1.73-4.59,5-2.07-2.99-7.94,5.15-3.95h0Z" style="fill: #c4ddf3;"/>
            <path d="M1145.23,1300.74c.94,1.97.2,4.28-2.08,5.36-2.02.96-4.15.05-5.04-1.96-.9-2.08-.1-4.4,1.99-5.4,2.15-1.03,4.22-.08,5.13,2h0ZM1156.93,1345.33l-14.13-32.41,5.74-2.74,14.13,32.41-5.74,2.74Z" style="fill: #c4ddf3;"/>
            <path d="M1199.98,1296.61c-3.64-5.79-8.01-12.75-10.92-18.13l-.18.12c1.38,5.89,2.61,12.3,3.81,19.5l4.21,25.3-4.09,2.49-18.12-16.29c-5.35-4.83-10.1-9.34-14.11-13.71l-.12.08c2.85,5.42,6.54,12.8,9.74,19.44l9.12,19.06-5.14,3.14-20.96-44.64,6.87-4.2,18.67,16.38c4.67,4.22,8.72,8.05,12.25,11.86l.18-.12c-1.35-4.97-2.49-10.58-3.64-17.12l-4.11-25.28,6.87-4.2,26.47,41.28-5.27,3.22-11.53-18.18h-.02Z" style="fill: #c4ddf3;"/>
            <path d="M1220.82,1287.42c5.24,6.83,11.65,6.18,16.64,2.13,3.57-2.9,5.25-5.29,6.52-7.63l3.57,2.98c-1.15,2.24-3.46,5.61-7.83,9.16-8.44,6.86-17.7,5.26-23.99-3.24-6.29-8.49-6.38-19.14,1.61-25.63,8.95-7.28,17.32-1.13,21.15,4.05.77,1.05,1.27,1.95,1.6,2.52l-19.25,15.66h0ZM1232.71,1271.88c-2.35-3.3-7.46-7.26-13.07-2.71-5.05,4.1-3.71,10.67-1.49,14.53l14.56-11.84h0Z" style="fill: #c4ddf3;"/>
            <path d="M1245.08,1217.71l28.68,30.85c2.1,2.27,4.56,4.81,6.33,6.38l-4.05,4.14-4.33-4.22-.1.11c1.26,4.27.24,9.51-3.81,13.66-6.01,6.13-15.49,5.62-22.69-2.13-7.95-8.44-7.67-18.9-1.6-25.09,3.8-3.88,8.09-4.65,11.13-3.75l.1-.11-14.17-15.24,4.52-4.61h0ZM1261.3,1244.64c-.54-.58-1.32-1.32-2.02-1.74-3.41-2.27-8.13-2.19-11.53,1.27-4.67,4.77-3.52,11.82,1.72,17.46,4.81,5.17,11.24,6.92,16.12,1.95,3.03-3.09,3.89-7.98,1.48-12.3-.43-.79-.97-1.47-1.65-2.21l-4.12-4.43h0Z" style="fill: #c4ddf3;"/>
            <path d="M1260.07,1209.43c1.65,1.39,1.89,3.79.26,5.78-1.45,1.76-3.76,1.87-5.36.42-1.65-1.49-1.86-3.95-.36-5.78,1.54-1.88,3.81-1.93,5.45-.43h0ZM1288.5,1244.79l-25.78-23.26,4.12-5.01,25.78,23.26-4.12,5.01Z" style="fill: #c4ddf3;"/>
            <path d="M1290.17,1216.64c6.86,5.02,12.84,2.5,16.54-2.85,2.65-3.83,3.62-6.63,4.21-9.24l4.22,1.81c-.51,2.49-1.82,6.4-5.05,11.09-6.26,9.07-15.59,10.26-23.9,3.95-8.31-6.31-11.25-16.51-5.32-25.09,6.65-9.61,16.32-6.17,21.39-2.33,1.02.78,1.74,1.5,2.21,1.95l-14.29,20.68h0ZM1297.44,1198.22c-3.14-2.47-9.11-4.78-13.27,1.25-3.74,5.41-.71,11.32,2.47,14.39l10.8-15.64Z" style="fill: #c4ddf3;"/>
            <path d="M1282.81,1171.88c1.28-3.79,3.01-8.19,5.32-12.77,4.18-8.3,8.96-13.22,14.36-15.25,5.42-2.1,11.44-1.74,18.22,2,6.84,3.78,11.3,9.13,13.04,15.45,1.81,6.35.44,14.43-3.94,23.13-2.08,4.12-4,7.47-5.78,10.23l-41.2-22.78h0ZM1322.77,1186.58c.98-1.32,2.11-3.42,3.25-5.67,6.22-12.36,3.14-22.64-8.17-28.9-9.85-5.53-19.14-3.02-25.29,9.21-1.51,2.99-2.4,5.38-2.86,7.09l33.06,18.29h0Z" style="fill: #c4ddf3;"/>
            <path d="M1333.33,1136.55c7.94,2.74,12.99-1.46,15.06-7.7,1.49-4.47,1.65-7.43,1.5-10.11l4.53.46c.19,2.54,0,6.68-1.81,12.14-3.52,10.57-12.12,14.51-21.81,10.98-9.69-3.53-15.29-12.42-11.97-22.43,3.73-11.21,13.94-10.82,19.85-8.67,1.19.43,2.08.91,2.65,1.2l-8.02,24.12h.02ZM1335.24,1116.72c-3.69-1.43-10.04-1.83-12.37,5.19-2.1,6.32,2.43,11.06,6.3,13.04l6.07-18.23h0Z" style="fill: #c4ddf3;"/>
            <path d="M1352.8,1105.54c1.56-1.64,3.51-4.73,4.18-7.95.98-4.7-.75-7.41-3.49-8.03-2.89-.66-4.84.81-7.49,5.2-3.46,5.89-7.39,8.15-11.37,7.23-5.35-1.23-8.78-6.87-7.18-14.49.75-3.59,2.37-6.53,3.89-8.25l4.05,2.63c-1.11,1.2-2.75,3.52-3.45,6.82-.8,3.81.82,6.41,3.28,6.98,2.75.64,4.43-1.21,7.04-5.45,3.48-5.66,7.03-8.15,11.98-7.01,5.84,1.34,8.93,7.14,7.17,15.57-.82,3.89-2.46,7.28-4.36,9.46l-4.26-2.67v-.03Z" style="fill: #c4ddf3;"/>
            <path d="M1322.73,1061.01c2.1.21,3.57,2.08,3.24,4.69-.29,2.31-2.17,3.72-4.26,3.43-2.16-.3-3.61-2.24-3.32-4.62.31-2.46,2.18-3.79,4.34-3.5ZM1365.01,1074.28l-33.72-4.66.83-6.56,33.72,4.66-.83,6.56Z" style="fill: #c4ddf3;"/>
            <path d="M1334.24,1021.3c2.45.21,5.19.43,9.34.54l19.74.5c7.79.19,12.54,1.96,15.4,5.58,3.01,3.61,3.88,8.73,3.77,13.32-.1,4.35-1.19,9.14-3.09,12.02l-4.67-1.77c1.46-2.37,2.81-6.1,2.91-10.59.16-6.76-3.03-11.8-11.6-12.02l-3.8-.1v.15c3.11,2.11,5.55,6.08,5.42,11.71-.21,9.01-7.52,15.29-16.93,15.05-11.53-.29-17.87-8.49-17.68-16.82.15-6.31,3.32-9.69,6.17-11.19v-.15l-5.12-.43.13-5.78h0ZM1347.5,1028.48c-1.06-.03-1.97.03-2.82.31-3.61,1.11-6.64,4.27-6.75,9.07-.15,6.31,4.74,10.94,12.61,11.13,6.67.16,12.31-3.29,12.47-10.43.09-4.05-2.21-7.79-6.11-9.32-1.05-.4-2.23-.58-3.29-.61l-6.11-.15h0Z" style="fill: #c4ddf3;"/>
            <path d="M1342.88,1010.54c-3.48.45-6.34.91-9.1,1.49l-.69-5.82,5.53-1.1-.02-.14c-3.42-1.37-7.05-5.13-7.77-11.1-.6-5,1.28-13.11,12.85-14.62l20.16-2.63.78,6.56-19.46,2.53c-5.44.71-9.71,3.47-8.98,9.65.51,4.32,3.77,7.31,7.33,7.98.8.2,1.87.21,2.91.08l20.29-2.65.78,6.56-24.61,3.21h0Z" style="fill: #c4ddf3;"/>
            <path d="M1344.63,962.51c8.03-2.45,9.92-8.91,8.26-15.28-1.19-4.56-2.65-7.11-4.22-9.23l3.99-2.31c1.53,1.97,3.62,5.51,5.07,11.08,2.81,10.8-2.15,19.14-12.06,21.98-9.9,2.83-19.32-1.17-21.98-11.39-2.98-11.45,5.65-17.19,11.68-18.91,1.22-.35,2.21-.47,2.84-.58l6.42,24.64h0ZM1335.5,945.04c-3.81,1.01-9.26,4.44-7.39,11.61,1.68,6.45,7.98,7.68,12.24,7.01l-4.85-18.62Z" style="fill: #c4ddf3;"/>
            <path d="M1327.74,931.4c-3.72,1.54-6.9,2.94-9.76,4.36l-2.03-5.38,6.13-2.78-.1-.28c-4.83.22-8.91-2.37-10.46-6.49-.27-.7-.39-1.21-.46-1.83l5.42-2.24c.11.68.28,1.34.6,2.18,1.64,4.33,5.86,6.13,10.5,5.18.84-.18,1.8-.42,2.78-.83l16.87-6.98,2.29,6.08-21.76,9.01h0Z" style="fill: #c4ddf3;"/>
          </g>
        </g>
      </g>
    </g>
  </g>
</svg>