<?xml version="1.0" encoding="UTF-8"?>
<svg id="Layer_1" data-name="Layer 1" xmlns="http://www.w3.org/2000/svg" xmlns:xlink="http://www.w3.org/1999/xlink" viewBox="0 0 1125 2436">
  <defs>
    <clipPath id="clippath">
      <polyline points="8.04 0 1125 0 1125 2436 -505.6 2436 -445.42 0" style="fill: none;"/>
    </clipPath>
    <radialGradient id="radial-gradient" cx="791.44" cy="1514.27" fx="677" fy="2324.85" r="818.62" gradientTransform="translate(-348.82 -480.72) scale(1.35 1.42)" gradientUnits="userSpaceOnUse">
      <stop offset=".48" stop-color="#bec188"/>
      <stop offset="1" stop-color="#d6b1ff"/>
    </radialGradient>
  </defs>
  <g style="clip-path: url(#clippath);">
    <polygon points="1125 2436 8.04 2436 -4.06 0 1125 0 1125 2436" style="fill: url(#radial-gradient); stroke: #000; stroke-miterlimit: 10;"/>
    <ellipse cx="566.52" cy="910.09" rx="193.99" ry="164.64" style="fill: #ffc94f; stroke: #000; stroke-miterlimit: 10;"/>
    <ellipse cx="120.39" cy="1636.13" rx="730.19" ry="882.6" style="fill: #64a69a; stroke: #000; stroke-miterlimit: 10;"/>
    <path d="M1225.47,1489.3c-34.74,567.31,187.12,826.53,21.45,1001.87-212.43,224.83-815.88,51.24-827.23-73.53-5.95-65.37,154.88-70.79,229.79-211.4,116.26-218.24-143.8-444.27-159.32-731.54-29.64-548.66,844.65-1100.84,988.99-985.84,95.17,75.83-215.16,371.47-253.67,1000.44Z" style="fill: #3b8b66; stroke: #000; stroke-miterlimit: 10;"/>
    <g>
      <g id="Layer_1-2" data-name="Layer 1">
        <g>
          <ellipse cx="547.53" cy="911.55" rx="377.21" ry="349.81" transform="translate(-41.62 26.33) rotate(-2.65)" style="fill: none;"/>
          <path d="M289.42,630.06c-4.35-5.08-9.58-11.21-13.17-16.01l-.16.14c2.17,5.58,4.3,11.68,6.49,18.58l7.73,24.23-3.59,3.16-19.86-12.98c-5.87-3.85-11.11-7.49-15.62-11.11l-.11.1c3.54,4.85,8.17,11.5,12.23,17.51l11.56,17.24-4.51,3.97-26.7-40.45,6.04-5.31,20.41,12.97c5.12,3.36,9.59,6.46,13.55,9.61l.16-.14c-2.03-4.67-3.94-10.01-5.99-16.26l-7.63-24.22,6.04-5.31,31.54,36.19-4.62,4.06-13.77-15.97h-.02Z" style="fill: #5D83A7;"/>
          <path d="M297.75,595.23c1.2,1.78.83,4.17-1.21,5.64-1.82,1.3-4.02.76-5.16-1.07-1.18-1.89-.75-4.31,1.12-5.66,1.93-1.39,4.07-.8,5.25,1.09h0ZM315.63,637.11l-18.43-29.48,5.14-3.69,18.43,29.48-5.14,3.69Z" style="fill: #5D83A7;"/>
          <path d="M313.4,584.49l4.89,8.74,7.6-4.88,2.35,4.22-7.6,4.88,9.18,16.41c2.11,3.77,4.33,5.25,7.29,3.35,1.38-.9,2.31-1.74,2.87-2.35l2.56,4c-.78,1.1-2.23,2.47-4.29,3.77-2.47,1.59-4.92,2.05-7.04,1.36-2.43-.66-4.47-3.02-6.49-6.61l-9.29-16.6-4.53,2.91-2.35-4.22,4.53-2.91-4.08-7.29,4.38-4.78h.02Z" style="fill: #5D83A7;"/>
          <path d="M361.06,608.11l-18.73-45.15,6.11-2.91,23.36,16.24c5.41,3.77,9.88,7.33,13.86,10.97l.1-.13c-3.02-5.79-5.42-11.22-8.34-18.25l-7.84-18.89,5.27-2.51,18.73,45.15-5.66,2.7-23.25-16.36c-5.1-3.58-10.14-7.37-14.35-11.22l-.16.16c2.69,5.54,5.06,10.91,8.18,18.41l8,19.3-5.27,2.51v-.02Z" style="fill: #5D83A7;"/>
          <path d="M420.34,582.85l-1.79-4.07-.2.07c-.98,3.28-3.7,6.89-8.31,8.54-6.53,2.34-11.37-1.26-12.89-6.12-2.54-8.14,3.01-15.07,15.5-19.47l-.22-.69c-.87-2.78-3.16-7.52-9.77-5.16-3,1.08-5.83,3.18-7.62,5.52l-2.6-3.55c2.1-2.76,5.61-5.33,9.67-6.79,9.88-3.54,14.47,2.62,16.57,9.37l3.93,12.59c.91,2.92,1.93,5.72,3.06,7.88l-5.34,1.92h0ZM414.1,565.99c-6.45,2.16-13.35,5.94-11.31,12.48,1.24,3.97,4.36,4.93,7.36,3.85,4.21-1.51,6-5.25,6.05-8.43,0-.7-.08-1.44-.28-2.07l-1.82-5.84h0Z" style="fill: #5D83A7;"/>
          <path d="M427.61,543.53l11,17.6c1.82,2.84,3.38,5.44,4.72,8.11l.21-.06c.09-3.04.38-6.14.74-9.57l1.9-21.07,6.28-1.69-4.92,37.9-5.73,1.54-20.59-31.06,6.42-1.72h0Z" style="fill: #5D83A7;"/>
          <path d="M461.42,544.78c-.56-3.62-1.08-6.57-1.73-9.43l5.42-.95,1.23,5.73.13-.03c1.16-3.62,4.55-7.56,10.1-8.53,4.65-.82,12.31.81,14.15,12.83l3.19,20.91-6.11,1.07-3.08-20.18c-.86-5.64-3.59-10-9.35-8.98-4.03.7-6.69,4.22-7.2,7.94-.15.85-.13,1.95.04,3.04l3.22,21.05-6.11,1.07-3.9-25.54h0Z" style="fill: #5D83A7;"/>
          <path d="M520.2,546.09c.51,8.71,6.01,12.04,12.19,11.73,4.43-.22,7.06-1.16,9.34-2.29l1.25,4.56c-2.14,1.14-5.8,2.48-11.21,2.75-10.47.51-17.03-6.36-17.49-17.04-.46-10.69,5.22-19.41,15.13-19.9,11.11-.55,14.49,9.49,14.77,16,.05,1.32-.04,2.35-.08,3.01l-23.89,1.17h0ZM538.13,540.58c-.11-4.1-2.07-10.39-9.02-10.05-6.25.31-8.73,6.45-9.04,10.94,0,0,18.06-.89,18.06-.89Z" style="fill: #5D83A7;"/>
          <path d="M552.35,537.24c.07-4.18.06-7.77-.1-11.07l5.42.11.09,6.97h.28c1.63-4.73,5.41-7.67,9.55-7.58.7,0,1.2.1,1.75.25l-.1,6.09c-.63-.16-1.27-.24-2.1-.26-4.36-.09-7.51,3.3-8.44,8.12-.15.88-.31,1.9-.33,2.99l-.31,18.91-6.12-.12.41-24.41h0Z" style="fill: #5D83A7;"/>
          <path d="M603.55,515.41l6.08.69-3.27,32.88c-1.29,13.05-7.85,16.35-15.97,15.43-2.24-.26-4.92-1.08-6.39-1.91l1.42-5.07c1.21.65,2.98,1.3,5.01,1.53,5.45.63,8.92-1.56,9.88-11.18l3.22-32.37h0Z" style="fill: #5D83A7;"/>
          <path d="M643.48,562.33c-.61,3.61-1.08,6.8-1.34,9.57l-5.4-1.05.62-5.77-.13-.03c-2.07,2.5-6.23,5.49-12.18,4.33-5.26-1.02-11.04-5.28-8.96-17.55l3.47-20.42,6.09,1.18-3.28,19.33c-1.12,6.63.05,11.49,5.59,12.57,4.08.8,7.42-1.61,9-4.21.5-.87.91-1.98,1.11-3.14l3.64-21.43,6.09,1.18-4.31,25.39v.02Z" style="fill: #5D83A7;"/>
          <path d="M662.86,523.86l6,1.6-11.73,50.52-6-1.6s11.73-50.52,11.73-50.52Z" style="fill: #5D83A7;"/>
          <path d="M666.75,578.76l9.23-34.08,5.95,1.85-9.23,34.08-5.95-1.85ZM685.19,537.16c-.5,2.14-2.44,3.36-4.82,2.63-2.09-.65-3.12-2.8-2.55-4.91.59-2.19,2.61-3.39,4.76-2.72,2.23.69,3.19,2.82,2.6,5.01h0Z" style="fill: #5D83A7;"/>
          <path d="M690.33,569.11c-2.61,8.26,1.29,13.58,7.12,15.82,4.17,1.6,6.95,1.81,9.45,1.69l-.46,4.73c-2.37.18-6.25-.07-11.36-2.02-9.87-3.78-13.5-12.82-10.14-22.89s11.72-15.83,21.05-12.25c10.46,4.02,10.04,14.68,7.99,20.82-.41,1.24-.87,2.16-1.14,2.75l-22.52-8.65h0ZM708.87,571.33c1.36-3.84,1.78-10.46-4.78-12.97-5.89-2.26-10.37,2.41-12.24,6.44l17.02,6.54h0Z" style="fill: #5D83A7;"/>
          <path d="M772.19,603.15c2.73-6.25,6.02-13.76,8.8-19.15l-.19-.11c-3.98,4.29-8.44,8.72-13.55,13.51l-17.95,16.88-4.09-2.35,3.63-24.62c1.09-7.28,2.23-13.86,3.64-19.7l-.13-.07c-2.84,5.35-6.81,12.48-10.45,18.79l-10.47,18.03-5.15-2.96,24.72-41.86,6.88,3.96-3.42,25.15c-.95,6.36-1.91,11.96-3.13,17.08l.19.11c3.25-3.78,7.13-7.71,11.74-12.13l17.99-16.78,6.88,3.96-19.2,45.04-5.27-3.03,8.52-19.72h0Z" style="fill: #5D83A7;"/>
          <path d="M812.55,617.78l4.78-1.76,1.18,3.31-4.86,1.89c.93,4.74-.15,9.76-3.12,14.25-7.03,10.65-17.22,10.03-23.7,5.11-2.59-1.95-4.68-4.54-5.78-7.43l-4.88,1.78-.94-3.41,4.78-1.76c-.96-4.68-.04-9.73,3.08-14.45,6.36-9.64,16.2-10.71,23.78-4.97,2.52,1.92,4.52,4.51,5.68,7.44h0ZM807.87,619.63c-.56-2.03-1.73-3.91-3.74-5.43-6.2-4.7-12.62-.59-16.1,4.68-1.66,2.51-2.77,5.62-2.71,8.81l.07.14,22.47-8.2h0ZM785.71,631.29c.53,2.2,1.82,3.9,3.55,5.2,5.28,4.01,11.91,1.93,16.21-4.59,1.3-1.97,2.7-5.13,2.7-8.54l-.12-.09-22.36,8.02h0Z" style="fill: #5D83A7;"/>
          <path d="M820.63,636.33c2.51-3.21,4.6-6.01,6.42-8.68l4.15,3.73-4.02,5.48.22.19c4.04-2.59,8.7-2.32,11.88.53.54.48.87.88,1.21,1.38l-3.65,4.66c-.4-.55-.84-1.04-1.48-1.62-3.34-3-7.78-2.49-11.32.64-.64.58-1.36,1.27-2.02,2.11l-11.34,14.5-4.69-4.22,14.63-18.71h.02Z" style="fill: #5D83A7;"/>
          <path d="M839.95,661.45l.1.11c1.42-.26,3.28-.46,4.8-.61l15.13-1.25,5.33,5.59-18.92.55-2.95,26.16-5.37-5.64,2.72-20.96-4.65.24-8.72,9.53-4.37-4.59,34.01-37.17,4.37,4.59-21.46,23.46h-.02Z" style="fill: #5D83A7;"/>
        </g>
      </g>
      <g id="Layer_2" data-name="Layer 2">
        <g>
          <path d="M535.51,561.79c207.5-5.36,379.25,147.56,383.62,341.54s-160.32,355.59-367.82,360.94c-207.5,5.36-379.25-147.56-383.62-341.54-4.36-193.99,160.32-355.59,367.82-360.94Z" style="fill: none;"/>
          <path d="M225.97,834.16l-1.94,6.19-29.38-10.55c-11.66-4.19-13.28-11.75-10.7-20,.71-2.28,2.04-4.89,3.12-6.25l4.34,2.59c-.85,1.12-1.82,2.83-2.47,4.89-1.73,5.56-.49,9.65,8.11,12.74l28.92,10.39h0Z" style="fill: #c4ddf3;"/>
          <path d="M190.85,845.36c-8.03-1.66-12.42,3.19-13.69,9.66-.91,4.63-.72,7.59-.25,10.23l-4.46.14c-.49-2.49-.8-6.63.31-12.29,2.16-10.95,10.03-16,19.84-13.79,9.81,2.21,16.3,10.28,14.27,20.65-2.28,11.61-12.24,12.6-18.21,11.25-1.21-.27-2.12-.64-2.71-.85l4.92-24.99h0ZM191.36,865.28c3.75.92,9.95.48,11.38-6.8,1.28-6.54-3.67-10.65-7.66-12.1l-3.71,18.89Z" style="fill: #c4ddf3;"/>
          <path d="M200.43,913.29c-2.39-.32-5.06-.65-9.1-.93l-19.26-1.33c-7.61-.53-12.18-2.49-14.84-6.22-2.8-3.74-3.46-8.9-3.18-13.47.26-4.35,1.51-9.08,3.47-11.88l4.49,1.96c-1.52,2.3-2.97,5.97-3.24,10.47-.4,6.75,2.52,11.91,10.88,12.5l3.7.26v-.15c-2.96-2.23-5.18-6.31-4.85-11.93.54-8.99,7.93-14.96,17.11-14.32,11.25.78,17.14,9.24,16.64,17.56-.38,6.3-3.6,9.53-6.44,10.92v.15l4.98.65-.35,5.77h0ZM187.75,905.57c1.02.07,1.92.06,2.77-.18,3.57-.95,6.64-3.99,6.94-8.78.38-6.3-4.21-11.13-11.9-11.66-6.51-.45-12.15,2.77-12.58,9.89-.24,4.04,1.87,7.89,5.62,9.57,1.01.44,2.17.67,3.19.75,0,0,5.97.41,5.97.41Z" style="fill: #c4ddf3;"/>
          <path d="M184.4,945.19c-8.09,1.33-10.7,7.47-9.88,14.02.59,4.69,1.7,7.41,2.97,9.73l-4.15,1.74c-1.25-2.17-2.83-5.96-3.56-11.69-1.4-11.09,4.43-18.68,14.37-20.14,9.94-1.44,18.58,3.82,19.91,14.32,1.49,11.76-7.58,16.26-13.64,17.14-1.22.17-2.2.16-2.82.18l-3.2-25.31h0ZM191.12,963.78c3.82-.48,9.52-3.13,8.59-10.5-.84-6.63-6.79-8.71-11.01-8.64l2.42,19.13Z" style="fill: #c4ddf3;"/>
          <path d="M196.98,978.4c3.8-1.03,7.04-1.98,9.99-3l1.32,5.6-6.28,1.93.07.29c4.71.43,8.35,3.55,9.35,7.86.17.73.22,1.26.22,1.88l-5.53,1.49c-.02-.69-.11-1.37-.31-2.24-1.06-4.52-4.94-6.88-9.55-6.56-.84.07-1.8.17-2.8.44l-17.19,4.64-1.49-6.34,22.19-5.99h0Z" style="fill: #c4ddf3;"/>
          <path d="M190.35,1035.96l36.3-34.98,2.63,6.47-17.97,17c-4.92,4.67-9.38,8.8-13.86,12.36l.05.13c5.45-.98,11.58-1.56,17.96-2.08l24.17-1.94,2.61,6.4-49.2,3.22-2.69-6.62-.02.02Z" style="fill: #c4ddf3;"/>
          <path d="M218.21,1059.63c-6.95,4.61-7.12,11.36-3.96,17.04,2.26,4.06,4.27,6.11,6.28,7.7l-3.18,3.34c-1.94-1.47-4.78-4.29-7.55-9.26-5.35-9.62-2.75-19.06,5.87-24.56,8.62-5.5,18.49-4.29,23.55,4.81,5.67,10.2-1.03,18.14-6.29,21.5-1.06.68-1.96,1.08-2.52,1.35l-12.19-21.95h0ZM231.17,1073.91c3.34-2.04,7.62-6.88,4.07-13.26-3.19-5.74-9.43-5.17-13.28-3.32l9.22,16.58h0Z" style="fill: #c4ddf3;"/>
          <path d="M280.13,1092.74l-31.6,26.61c-2.33,1.95-4.92,4.25-6.58,5.92l-3.42-4.66,4.37-4.05-.09-.12c-4.09.86-8.86-.76-12.27-5.42-5.07-6.91-3.61-16.74,4.33-23.42,8.65-7.39,18.33-5.98,23.44.99,3.21,4.37,3.48,8.92,2.32,11.99l.09.12,15.62-13.14,3.81,5.2h0ZM253.46,1106.78c.59-.5,1.37-1.24,1.82-1.92,2.46-3.31,2.87-8.24,0-12.14-3.94-5.37-10.6-4.93-16.38-.06-5.29,4.46-7.59,10.98-3.48,16.59,2.55,3.49,7,4.9,11.26,2.84.78-.37,1.47-.86,2.23-1.49l4.54-3.82h0Z" style="fill: #c4ddf3;"/>
          <path d="M276.27,1161.92l2.46-3.68-.15-.15c-3.15.7-7.42-.08-11-3.57-5.08-4.96-4.47-11.25-1.24-15.05,5.41-6.37,13.77-4.59,23.41,4.92l.47-.55c1.85-2.18,4.61-6.65-.52-11.66-2.33-2.27-5.42-3.89-8.19-4.42l1.64-4.17c3.28.61,7.07,2.62,10.23,5.7,7.66,7.48,4.86,14.8.37,20.09l-8.37,9.85c-1.94,2.28-3.74,4.62-4.95,6.72l-4.14-4.04v.02ZM287.03,1147.82c-4.88-4.97-11.31-9.55-15.66-4.44-2.64,3.1-1.91,6.49.41,8.77,3.26,3.19,7.19,3.03,9.81,1.51.58-.34,1.14-.78,1.55-1.27l3.89-4.57h0Z" style="fill: #c4ddf3;"/>
          <path d="M321.41,1142.12l-5.8,8.13,7.02,5.75-2.79,3.92-7.02-5.75-10.9,15.26c-2.51,3.51-2.97,6.27-.25,8.51,1.28,1.05,2.35,1.65,3.09,1.97l-2.53,4.04c-1.24-.37-2.95-1.31-4.84-2.86-2.28-1.87-3.58-4.14-3.75-6.5-.31-2.66.99-5.59,3.37-8.92l11.03-15.44-4.18-3.42,2.79-3.92,4.18,3.42,4.84-6.78,5.75,2.58h0Z" style="fill: #c4ddf3;"/>
          <path d="M346.59,1157.42c2.59.91,6.43,2.77,10.14,5.05,5.29,3.25,8.18,6.31,9.57,10.04,1.24,2.97,1.15,6.31-.66,9.7-2.22,4.15-6.78,6.18-11.99,5.19l-.07.13c3.34,3.42,6.09,9.6,2.67,15.99-1.99,3.71-4.89,5.65-8.08,6.49-4.33.99-9.63-.58-16.32-4.69-3.65-2.24-6.31-4.22-7.93-5.56l22.67-42.34h0ZM331.4,1198.93c.93.83,2.42,1.83,4.3,2.99,5.47,3.36,11.65,4.36,15-1.9,3.14-5.87-.36-11.26-6.13-14.81l-4.38-2.69-8.79,16.41h0ZM342.44,1178.29l4.8,2.96c5.59,3.44,10.51,2.39,12.74-1.76,2.7-5.05.12-9.26-5.24-12.56-2.44-1.49-3.94-2.17-4.89-2.49l-7.42,13.86h0Z" style="fill: #c4ddf3;"/>
          <path d="M379.95,1173.19l5.57,2.84-21,47.19-5.57-2.84,21-47.19h0Z" style="fill: #c4ddf3;"/>
          <path d="M375.18,1228.36l12.94-32.83,5.68,2.57-12.94,32.83-5.68-2.57ZM398.09,1189.18c-.74,2.06-2.8,3.05-5.06,2.02-2-.91-2.78-3.18-1.98-5.21.83-2.1,2.96-3.06,5.02-2.12,2.13.96,2.85,3.21,2.01,5.31h0Z" style="fill: #c4ddf3;"/>
          <path d="M405.28,1203.05l.2,21.26c.07,3.46.04,6.56-.2,9.59l.2.08c1.63-2.51,3.45-4.96,5.5-7.63l12.33-16.63,6.09,2.25-23.44,29.02-5.56-2.06-1.34-38.2,6.23,2.3h0Z" style="fill: #c4ddf3;"/>
          <path d="M433.04,1232.58c-1.83,8.54,2.52,13.41,8.51,15.01,4.29,1.15,7.05,1.05,9.52.65l-.03,4.78c-2.34.44-6.21.63-11.45-.77-10.14-2.7-14.57-11.32-12.14-21.75,2.42-10.43,10.18-17.09,19.77-14.53,10.75,2.86,11.3,13.56,9.82,19.91-.3,1.28-.66,2.25-.88,2.88l-23.13-6.16h0ZM451.63,1232.75c1-3.99.81-10.63-5.93-12.43-6.06-1.61-10.06,3.53-11.56,7.77l17.49,4.66h0Z" style="fill: #c4ddf3;"/>
          <path d="M483.69,1243.68c-.81,8.72,4.1,12.96,10.23,13.73,4.38.55,7.12.08,9.52-.66l.55,4.74c-2.27.75-6.08,1.46-11.45.8-10.37-1.29-15.79-9.24-14.63-19.91,1.16-10.68,8.06-18.34,17.88-17.12,11,1.37,12.82,11.9,12.11,18.41-.14,1.32-.4,2.32-.53,2.98l-23.67-2.96h-.02ZM502.15,1241.31c.51-4.08-.47-10.66-7.36-11.52-6.2-.77-9.56,4.88-10.53,9.28l17.89,2.23Z" style="fill: #c4ddf3;"/>
          <path d="M516.67,1237.92c.08-3.68.08-6.7-.07-9.65l5.46.13.22,5.9h.14c1.76-3.34,5.75-6.56,11.36-6.41,4.69.12,11.91,3.25,11.65,15.48l-.47,21.27-6.16-.15.45-20.54c.13-5.74-1.8-10.58-7.62-10.73-4.06-.11-7.29,2.83-8.41,6.41-.3.8-.47,1.91-.49,3l-.48,21.43-6.16-.15.58-25.99h0Z" style="fill: #c4ddf3;"/>
          <path d="M611.4,1236.51c-1.19-6.82-2.61-15-3.29-21.15l-.21.03c-.89,5.99-2.09,12.39-3.62,19.52l-5.36,25.04-4.58.65-10.44-22.37c-3.07-6.63-5.72-12.71-7.75-18.37l-.13.02c.61,6.15,1.28,14.45,1.75,21.88l1.33,21.27-5.77.81-2.75-49.67,7.71-1.08,10.9,22.68c2.69,5.79,4.94,10.97,6.75,15.91l.21-.03c.58-5.13,1.58-10.77,2.91-17.27l5.43-24.97,7.71-1.08,8.93,48.8-5.9.83-3.82-21.45Z" style="fill: #c4ddf3;"/>
          <path d="M658.98,1236.9c.85,3.56,1.67,6.68,2.52,9.34l-5.29,1.45-1.69-5.54-.13.04c-.9,3.21-3.49,7.8-9.33,9.41-5.16,1.42-12.06.13-14.96-12.01l-4.83-20.18,5.98-1.65,4.57,19.12c1.57,6.57,4.53,10.47,9.96,8.97,4.01-1.1,6.09-4.8,6.51-7.87.12-1.02.04-2.21-.22-3.36l-5.07-21.19,5.98-1.65,6.01,25.1h0Z" style="fill: #c4ddf3;"/>
          <path d="M657.47,1192.6l5.85-2.1,15.47,49.57-5.85,2.1-15.47-49.57Z" style="fill: #c4ddf3;"/>
          <path d="M681.24,1190.22l3.5,9.52,8.21-3.47,1.69,4.59-8.21,3.47,6.57,17.88c1.51,4.11,3.48,5.97,6.67,4.62,1.5-.64,2.53-1.31,3.17-1.81l1.92,4.41c-.93.94-2.57,2.03-4.78,2.97-2.68,1.13-5.16,1.15-7.13.08-2.28-1.1-3.95-3.79-5.39-7.69l-6.65-18.08-4.89,2.06-1.69-4.59,4.89-2.07-2.92-7.94,5.03-3.95h0Z" style="fill: #c4ddf3;"/>
          <path d="M701.45,1181.11c.92,1.97.2,4.28-2.03,5.36-1.98.96-4.06.05-4.92-1.96-.88-2.08-.1-4.4,1.94-5.4,2.1-1.03,4.12-.08,5.01,2h0ZM712.9,1225.69l-13.81-32.41,5.61-2.74,13.81,32.41-5.61,2.74Z" style="fill: #c4ddf3;"/>
          <path d="M754.97,1176.97c-3.56-5.79-7.84-12.75-10.67-18.13l-.18.12c1.35,5.89,2.55,12.3,3.72,19.5l4.12,25.3-4,2.49-17.71-16.29c-5.23-4.83-9.88-9.34-13.79-13.71l-.12.08c2.79,5.42,6.4,12.8,9.52,19.44l8.91,19.06-5.02,3.14-20.49-44.64,6.72-4.2,18.25,16.38c4.56,4.22,8.53,8.05,11.98,11.86l.18-.12c-1.32-4.97-2.44-10.58-3.56-17.12l-4.02-25.28,6.72-4.2,25.88,41.28-5.15,3.22-11.28-18.18h-.02Z" style="fill: #c4ddf3;"/>
          <path d="M775.35,1167.79c5.12,6.83,11.39,6.18,16.27,2.13,3.49-2.9,5.13-5.29,6.37-7.63l3.49,2.98c-1.12,2.24-3.39,5.61-7.66,9.16-8.25,6.86-17.31,5.26-23.45-3.24-6.15-8.49-6.24-19.14,1.57-25.63,8.75-7.28,16.93-1.13,20.68,4.05.75,1.05,1.24,1.95,1.56,2.52l-18.82,15.66h0ZM786.98,1152.25c-2.3-3.3-7.3-7.26-12.78-2.71-4.93,4.1-3.63,10.67-1.46,14.53l14.23-11.84h0Z" style="fill: #c4ddf3;"/>
          <path d="M799.07,1098.08l28.04,30.85c2.06,2.27,4.46,4.81,6.19,6.38l-3.96,4.14-4.23-4.22-.1.11c1.23,4.27.23,9.51-3.73,13.66-5.88,6.13-15.14,5.62-22.19-2.13-7.77-8.44-7.49-18.9-1.56-25.09,3.71-3.88,7.91-4.65,10.88-3.75l.1-.11-13.86-15.24,4.42-4.61h0ZM814.93,1125c-.53-.58-1.29-1.32-1.98-1.74-3.33-2.27-7.95-2.19-11.27,1.27-4.56,4.77-3.44,11.82,1.68,17.46,4.7,5.17,10.99,6.92,15.76,1.95,2.97-3.09,3.8-7.98,1.45-12.3-.42-.79-.95-1.47-1.62-2.21l-4.03-4.43h0Z" style="fill: #c4ddf3;"/>
          <path d="M813.72,1089.8c1.61,1.39,1.85,3.79.25,5.78-1.42,1.76-3.68,1.87-5.24.42-1.62-1.49-1.82-3.95-.35-5.78,1.51-1.88,3.72-1.93,5.33-.43h0ZM841.52,1125.16l-25.2-23.26,4.03-5.01,25.2,23.26-4.03,5.01Z" style="fill: #c4ddf3;"/>
          <path d="M843.16,1097.01c6.7,5.02,12.55,2.5,16.17-2.85,2.59-3.83,3.54-6.63,4.12-9.24l4.12,1.81c-.49,2.49-1.78,6.4-4.94,11.09-6.12,9.07-15.24,10.26-23.36,3.95-8.12-6.31-11-16.51-5.2-25.09,6.5-9.61,15.96-6.17,20.91-2.33,1,.78,1.7,1.5,2.16,1.95l-13.97,20.68h0ZM850.26,1078.59c-3.07-2.47-8.9-4.78-12.98,1.25-3.66,5.41-.69,11.32,2.42,14.39l10.56-15.64Z" style="fill: #c4ddf3;"/>
          <path d="M835.96,1052.25c1.25-3.79,2.95-8.19,5.2-12.77,4.09-8.3,8.76-13.22,14.04-15.25,5.3-2.1,11.19-1.74,17.81,2,6.69,3.78,11.04,9.13,12.75,15.45,1.77,6.35.43,14.43-3.85,23.13-2.03,4.12-3.91,7.47-5.65,10.23l-40.28-22.78h0ZM875.02,1066.94c.96-1.32,2.07-3.42,3.18-5.67,6.08-12.36,3.07-22.64-7.99-28.9-9.63-5.53-18.71-3.02-24.73,9.21-1.47,2.99-2.35,5.38-2.79,7.09l32.32,18.29h0Z" style="fill: #c4ddf3;"/>
          <path d="M885.35,1016.92c7.76,2.74,12.7-1.46,14.73-7.7,1.46-4.47,1.62-7.43,1.46-10.11l4.43.46c.19,2.54,0,6.68-1.77,12.14-3.44,10.57-11.85,14.51-21.32,10.98-9.47-3.53-14.95-12.42-11.7-22.43,3.65-11.21,13.63-10.82,19.41-8.67,1.17.43,2.03.91,2.59,1.2l-7.84,24.12h.02ZM887.21,997.09c-3.61-1.43-9.81-1.83-12.09,5.19-2.05,6.32,2.37,11.06,6.16,13.04l5.93-18.23h0Z" style="fill: #c4ddf3;"/>
          <path d="M904.39,985.91c1.53-1.64,3.43-4.73,4.09-7.95.96-4.7-.74-7.41-3.41-8.03-2.82-.66-4.74.81-7.32,5.2-3.39,5.89-7.22,8.15-11.12,7.23-5.23-1.23-8.58-6.87-7.02-14.49.74-3.59,2.32-6.53,3.8-8.25l3.96,2.63c-1.09,1.2-2.69,3.52-3.37,6.82-.78,3.81.8,6.41,3.21,6.98,2.69.64,4.33-1.21,6.88-5.45,3.41-5.66,6.87-8.15,11.71-7.01,5.71,1.34,8.73,7.14,7.01,15.57-.8,3.89-2.41,7.28-4.26,9.46l-4.16-2.67v-.03Z" style="fill: #c4ddf3;"/>
          <path d="M874.99,941.37c2.05.21,3.49,2.08,3.16,4.69-.29,2.31-2.12,3.72-4.16,3.43-2.11-.3-3.53-2.24-3.24-4.62.31-2.46,2.13-3.79,4.24-3.5ZM916.32,954.64l-32.97-4.66.81-6.56,32.97,4.66-.81,6.56Z" style="fill: #c4ddf3;"/>
          <path d="M886.24,901.67c2.4.21,5.08.43,9.13.54l19.3.5c7.62.19,12.26,1.96,15.06,5.58,2.94,3.61,3.79,8.73,3.68,13.32-.1,4.35-1.17,9.14-3.02,12.02l-4.56-1.77c1.43-2.37,2.75-6.1,2.85-10.59.15-6.76-2.97-11.8-11.34-12.02l-3.71-.1v.15c3.04,2.11,5.43,6.08,5.3,11.71-.21,9.01-7.35,15.29-16.55,15.05-11.27-.29-17.47-8.49-17.29-16.82.14-6.31,3.24-9.69,6.03-11.19v-.15l-5-.43.13-5.78h0ZM899.2,908.84c-1.03-.03-1.92.03-2.76.31-3.53,1.11-6.49,4.27-6.6,9.07-.14,6.31,4.64,10.94,12.33,11.13,6.52.16,12.03-3.29,12.19-10.43.09-4.05-2.17-7.79-5.98-9.32-1.02-.4-2.18-.58-3.22-.61l-5.98-.15h0Z" style="fill: #c4ddf3;"/>
          <path d="M894.69,890.91c-3.41.45-6.2.91-8.9,1.49l-.67-5.82,5.41-1.1-.02-.14c-3.34-1.37-6.89-5.13-7.59-11.1-.58-5,1.25-13.11,12.56-14.62l19.71-2.63.76,6.56-19.02,2.53c-5.32.71-9.5,3.47-8.78,9.65.5,4.32,3.68,7.31,7.16,7.98.78.2,1.82.21,2.85.08l19.84-2.65.76,6.56-24.06,3.21h0Z" style="fill: #c4ddf3;"/>
          <path d="M896.4,842.88c7.85-2.45,9.7-8.91,8.08-15.28-1.16-4.56-2.59-7.11-4.12-9.23l3.9-2.31c1.5,1.97,3.54,5.51,4.96,11.08,2.75,10.8-2.1,19.14-11.79,21.98-9.68,2.83-18.89-1.17-21.48-11.39-2.91-11.45,5.53-17.19,11.42-18.91,1.2-.35,2.16-.47,2.78-.58l6.27,24.64h0ZM887.47,825.41c-3.73,1.01-9.06,4.44-7.22,11.61,1.64,6.45,7.8,7.68,11.97,7.01l-4.74-18.62Z" style="fill: #c4ddf3;"/>
          <path d="M879.88,811.76c-3.64,1.54-6.75,2.94-9.54,4.36l-1.99-5.38,5.99-2.78-.1-.28c-4.72.22-8.71-2.37-10.23-6.49-.26-.7-.38-1.21-.45-1.83l5.3-2.24c.11.68.27,1.34.58,2.18,1.6,4.33,5.73,6.13,10.26,5.18.82-.18,1.76-.42,2.72-.83l16.49-6.98,2.24,6.08-21.28,9.01h0Z" style="fill: #c4ddf3;"/>
        </g>
      </g>
    </g>
  </g>
</svg>