<?xml version="1.0" encoding="UTF-8"?>
<svg id="Layer_6" data-name="Layer 6" xmlns="http://www.w3.org/2000/svg" xmlns:xlink="http://www.w3.org/1999/xlink" viewBox="0 0 1920.66 1083.98">
  <defs>
    <clipPath id="clippath">
      <rect width="1917.6" height="1083.98" style="fill: none;"/>
    </clipPath>
    <radialGradient id="radial-gradient" cx="960" cy="540" fx="960" fy="1110.79" r="778.85" gradientUnits="userSpaceOnUse">
      <stop offset=".07" stop-color="#c79b62"/>
      <stop offset=".54" stop-color="#cc7200"/>
      <stop offset=".95" stop-color="#473300"/>
    </radialGradient>
  </defs>
  <g style="clip-path: url(#clippath);">
    <g>
      <rect width="1920" height="1080" style="fill: url(#radial-gradient);"/>
      <path d="M1919,1v1078H1V1h1918M1920,0H0v1080h1920V0h0Z"/>
    </g>
    <g>
      <rect x="21.09" y="253.68" width="131.74" height="838.57" style="fill: #301e00;"/>
      <path d="M151.83,254.68v836.57H22.09V254.68h129.74M152.83,253.68H21.09v838.57h131.74V253.68h0Z"/>
    </g>
    <g>
      <rect x="1724.57" y="106.62" width="177.7" height="973.38" style="fill: #301e00;"/>
      <path d="M1901.28,107.62v971.38h-175.7V107.62h175.7M1902.28,106.62h-177.7v973.38h177.7V106.62h0Z"/>
    </g>
    <g>
      <rect x="1571.38" y="305.77" width="131.74" height="801.81" style="fill: #301e00;"/>
      <path d="M1702.13,306.77v799.81h-129.74V306.77h129.74M1703.13,305.77h-131.74v801.81h131.74V305.77h0Z"/>
    </g>
    <g>
      <path d="M805.43,200.27c0,65.88-59.33,119.28-132.53,119.28-27.51,0-53.06-7.54-74.24-20.46-29.5,7.56-64.41,11.93-101.81,11.93-22,0-43.13-1.51-62.81-4.3-17.97,8.2-38.3,12.82-59.83,12.82-73.19,0-132.53-53.4-132.53-119.28s59.34-119.27,132.53-119.27c6.36,0,12.62.41,18.74,1.18C410.58,34.95,460.18.91,518.61.91s109.07,34.75,126.21,82.77c9.05-1.76,18.45-2.69,28.08-2.69,73.19,0,132.53,53.4,132.53,119.27Z" style="fill: #c4ddf3;"/>
      <path d="M518.61,1.91c28.43,0,55.5,8.03,78.27,23.21,22.31,14.88,38.56,35.24,47,58.9l.29.81.84-.16c9.09-1.77,18.47-2.67,27.89-2.67,35.15,0,68.19,12.32,93.04,34.68,24.82,22.34,38.48,52.02,38.48,83.59s-13.67,61.26-38.48,83.6c-24.85,22.36-57.89,34.68-93.04,34.68-26.43,0-51.93-7.02-73.72-20.31l-.36-.22-.41.1c-30.38,7.79-65.5,11.9-101.57,11.9-21.48,0-42.57-1.44-62.67-4.29l-.29-.04-.27.12c-18.52,8.45-38.51,12.73-59.41,12.73-35.15,0-68.2-12.32-93.04-34.68-24.82-22.34-38.49-52.03-38.49-83.6s13.67-61.26,38.49-83.59c24.85-22.36,57.89-34.68,93.04-34.68,6.21,0,12.47.4,18.62,1.18l.79.1.28-.74c8.69-23.28,24.99-43.29,47.14-57.86,22.63-14.89,49.45-22.76,77.58-22.76M518.61.91c-58.43,0-108.03,34.03-125.66,81.27-6.13-.78-12.38-1.18-18.74-1.18-73.19,0-132.53,53.4-132.53,119.27s59.34,119.28,132.53,119.28c21.52,0,41.86-4.62,59.83-12.82,19.68,2.79,40.81,4.3,62.81,4.3,37.4,0,72.31-4.37,101.81-11.93,21.18,12.91,46.73,20.46,74.24,20.46,73.19,0,132.53-53.4,132.53-119.28s-59.33-119.27-132.53-119.27c-9.64,0-19.03.92-28.08,2.69C627.68,35.67,577.66.91,518.61.91h0Z"/>
    </g>
    <g>
      <path d="M1537.68,194.18c0,78.54-78.36,142.22-175.02,142.22-36.33,0-70.07-8.99-98.04-24.39-38.97,9.02-85.07,14.23-134.46,14.23-29.05,0-56.96-1.8-82.94-5.13-23.74,9.77-50.59,15.28-79.01,15.28-96.66,0-175.03-63.67-175.03-142.22s78.37-142.21,175.03-142.21c8.4,0,16.66.48,24.75,1.41,23.28-56.32,88.78-96.9,165.95-96.9s144.04,41.44,166.67,98.69c11.95-2.1,24.36-3.2,37.09-3.2,96.66,0,175.02,63.67,175.02,142.21Z" style="fill: #c4ddf3;"/>
      <path d="M1158.9-42.51c37.63,0,73.45,9.59,103.58,27.73,14.49,8.72,27.18,19.17,37.72,31.05,10.67,12.02,18.89,25.23,24.44,39.28l.3.76.8-.14c12.03-2.12,24.45-3.19,36.92-3.19,46.52,0,90.25,14.71,123.13,41.43,32.82,26.67,50.89,62.1,50.89,99.78s-18.07,73.12-50.89,99.79c-32.88,26.72-76.61,41.43-123.13,41.43-34.98,0-68.72-8.39-97.56-24.26l-.34-.18-.37.09c-40.15,9.29-86.57,14.2-134.23,14.2-28.39,0-56.25-1.72-82.82-5.12l-.26-.03-.24.1c-24.51,10.09-50.97,15.21-78.63,15.21-46.52,0-90.25-14.71-123.13-41.43-32.82-26.67-50.9-62.11-50.9-99.79s18.08-73.11,50.9-99.78c32.88-26.72,76.61-41.43,123.13-41.43,8.22,0,16.51.47,24.64,1.41l.75.09.29-.7c11.49-27.8,33.05-51.69,62.35-69.09,29.95-17.79,65.45-27.19,102.67-27.19M1158.9-43.51c-77.16,0-142.67,40.58-165.95,96.9-8.09-.93-16.35-1.41-24.75-1.41-96.66,0-175.03,63.67-175.03,142.21s78.37,142.22,175.03,142.22c28.43,0,55.28-5.51,79.01-15.28,25.99,3.32,53.9,5.13,82.94,5.13,49.39,0,95.49-5.21,134.46-14.23,27.97,15.4,61.71,24.39,98.04,24.39,96.66,0,175.02-63.67,175.02-142.22s-78.36-142.21-175.02-142.21c-12.73,0-25.14,1.1-37.09,3.2-22.63-57.25-88.69-98.69-166.67-98.69h0Z"/>
    </g>
    <g>
      <path d="M704.32,386.35c0,67.05-51.92,121.4-115.96,121.4-24.07,0-46.42-7.68-64.96-20.82-25.82,7.7-56.36,12.15-89.09,12.15-19.25,0-37.74-1.54-54.95-4.38-15.73,8.34-33.52,13.05-52.35,13.05-64.04,0-115.97-54.35-115.97-121.4s51.92-121.39,115.97-121.39c5.56,0,11.04.41,16.4,1.21,15.42-48.08,58.82-82.72,109.95-82.72s95.44,35.37,110.43,84.24c7.92-1.79,16.14-2.73,24.57-2.73,64.04,0,115.96,54.35,115.96,121.39Z" style="fill: #e7f4ff;"/>
      <path d="M453.36,184.44c24.83,0,48.46,8.16,68.35,23.59,19.51,15.14,33.73,35.87,41.12,59.95l.27.89.9-.2c7.94-1.8,16.13-2.71,24.35-2.71,30.7,0,59.56,12.52,81.27,35.25,21.72,22.74,33.69,52.98,33.69,85.15s-11.96,62.41-33.69,85.15c-21.71,22.73-50.57,35.25-81.27,35.25-23.08,0-45.34-7.14-64.38-20.63l-.4-.28-.47.14c-26.56,7.92-57.27,12.11-88.8,12.11-18.78,0-37.22-1.47-54.79-4.36l-.33-.05-.3.16c-16.17,8.58-33.63,12.93-51.88,12.93-30.7,0-59.56-12.52-81.28-35.25-21.72-22.74-33.69-52.98-33.69-85.15s11.96-62.41,33.69-85.15c21.71-22.73,50.58-35.25,81.28-35.25,5.42,0,10.89.4,16.25,1.2l.84.12.26-.81c7.6-23.7,21.86-44.07,41.24-58.9,19.77-15.13,43.2-23.12,67.76-23.12M453.36,183.44c-51.12,0-94.53,34.64-109.95,82.72-5.36-.79-10.84-1.21-16.4-1.21-64.04,0-115.97,54.35-115.97,121.39s51.92,121.4,115.97,121.4c18.83,0,36.62-4.7,52.35-13.05,17.22,2.84,35.71,4.38,54.95,4.38,32.73,0,63.27-4.45,89.09-12.15,18.53,13.14,40.89,20.82,64.96,20.82,64.04,0,115.96-54.35,115.96-121.4s-51.92-121.39-115.96-121.39c-8.43,0-16.65.94-24.57,2.73-14.99-48.87-58.76-84.24-110.43-84.24h0Z"/>
    </g>
    <g>
      <path d="M1525.43,320.56c0,67.05-51.92,121.4-115.96,121.4-24.07,0-46.42-7.68-64.96-20.82-25.82,7.7-56.36,12.15-89.09,12.15-19.25,0-37.74-1.54-54.95-4.38-15.73,8.34-33.52,13.05-52.35,13.05-64.04,0-115.97-54.35-115.97-121.4s51.92-121.39,115.97-121.39c5.56,0,11.04.41,16.4,1.21,15.42-48.08,58.82-82.72,109.95-82.72s95.44,35.37,110.43,84.24c7.92-1.79,16.14-2.73,24.57-2.73,64.04,0,115.96,54.35,115.96,121.39Z" style="fill: #e7f4ff;"/>
      <path d="M1274.46,118.65c24.83,0,48.46,8.16,68.35,23.59,19.51,15.14,33.73,35.87,41.12,59.95l.27.89.9-.21c7.94-1.8,16.13-2.71,24.35-2.71,30.7,0,59.56,12.52,81.27,35.25,21.72,22.74,33.69,52.98,33.69,85.15s-11.96,62.41-33.69,85.15c-21.71,22.73-50.57,35.25-81.27,35.25-23.08,0-45.34-7.14-64.38-20.63l-.4-.28-.47.14c-26.56,7.92-57.27,12.11-88.8,12.11-18.78,0-37.22-1.47-54.79-4.36l-.33-.05-.3.16c-16.17,8.58-33.63,12.93-51.88,12.93-30.7,0-59.56-12.52-81.28-35.25-21.72-22.74-33.69-52.98-33.69-85.15s11.96-62.41,33.69-85.15c21.71-22.73,50.58-35.25,81.28-35.25,5.42,0,10.89.4,16.25,1.2l.84.12.26-.81c7.6-23.7,21.86-44.07,41.24-58.9,19.77-15.13,43.2-23.12,67.76-23.12M1274.46,117.65c-51.12,0-94.53,34.64-109.95,82.72-5.36-.79-10.84-1.21-16.4-1.21-64.04,0-115.97,54.35-115.97,121.39s51.92,121.4,115.97,121.4c18.83,0,36.62-4.7,52.35-13.05,17.22,2.84,35.71,4.38,54.95,4.38,32.73,0,63.27-4.45,89.09-12.15,18.53,13.14,40.89,20.82,64.96,20.82,64.04,0,115.96-54.35,115.96-121.4s-51.92-121.39-115.96-121.39c-8.43,0-16.65.94-24.57,2.73-14.99-48.87-58.76-84.24-110.43-84.24h0Z"/>
    </g>
    <g>
      <ellipse cx="1813.43" cy="17.77" rx="303.32" ry="288" style="fill: #3b8b66;"/>
      <path d="M1813.43-269.23c40.82,0,80.42,7.59,117.69,22.56,36,14.46,68.33,35.16,96.1,61.52,27.76,26.36,49.56,57.05,64.78,91.23,15.76,35.38,23.75,72.96,23.75,111.7s-7.99,76.32-23.75,111.7c-15.22,34.17-37.02,64.87-64.78,91.23-27.76,26.36-60.1,47.06-96.1,61.52-37.28,14.97-76.87,22.56-117.69,22.56s-80.42-7.59-117.69-22.56c-36-14.46-68.33-35.16-96.1-61.52-27.76-26.36-49.56-57.05-64.78-91.23-15.76-35.38-23.75-72.96-23.75-111.7s7.99-76.32,23.75-111.7c15.22-34.17,37.02-64.87,64.78-91.23,27.76-26.36,60.1-47.06,96.1-61.52,37.28-14.97,76.87-22.56,117.69-22.56M1813.43-270.23c-167.52,0-303.32,128.94-303.32,288s135.8,288,303.32,288,303.32-128.94,303.32-288-135.8-288-303.32-288h0Z"/>
    </g>
    <g>
      <ellipse cx="1637.26" cy="134.19" rx="303.32" ry="288" style="fill: #3b8b66;"/>
      <path d="M1637.26-152.81c40.82,0,80.42,7.59,117.69,22.56,36,14.46,68.33,35.16,96.1,61.52,27.76,26.36,49.56,57.05,64.78,91.23,15.76,35.38,23.75,72.96,23.75,111.7s-7.99,76.32-23.75,111.7c-15.22,34.17-37.02,64.87-64.78,91.23-27.76,26.36-60.1,47.06-96.1,61.52-37.28,14.97-76.87,22.56-117.69,22.56s-80.42-7.59-117.69-22.56c-36-14.46-68.33-35.16-96.1-61.52-27.76-26.36-49.56-57.05-64.78-91.23-15.76-35.38-23.75-72.96-23.75-111.7s7.99-76.32,23.75-111.7c15.22-34.17,37.02-64.87,64.78-91.23,27.76-26.36,60.1-47.06,96.1-61.52,37.28-14.97,76.87-22.56,117.69-22.56M1637.26-153.81c-167.52,0-303.32,128.94-303.32,288s135.8,288,303.32,288,303.32-128.94,303.32-288-135.8-288-303.32-288h0Z"/>
    </g>
    <g>
      <ellipse cx="86.96" cy="57.6" rx="303.32" ry="288" style="fill: #3b8b66;"/>
      <path d="M86.96-229.4c40.82,0,80.42,7.59,117.69,22.56,36,14.46,68.33,35.16,96.1,61.52,27.76,26.36,49.56,57.05,64.78,91.23,15.76,35.38,23.75,72.96,23.75,111.7s-7.99,76.32-23.75,111.7c-15.22,34.17-37.02,64.87-64.78,91.23-27.76,26.36-60.1,47.06-96.1,61.52-37.28,14.97-76.87,22.56-117.69,22.56s-80.42-7.59-117.69-22.56c-36-14.46-68.33-35.16-96.1-61.52-27.76-26.36-49.56-57.05-64.78-91.23-15.76-35.38-23.75-72.96-23.75-111.7s7.99-76.32,23.75-111.7c15.22-34.17,37.02-64.87,64.78-91.23,27.76-26.36,60.1-47.06,96.1-61.52,37.28-14.97,76.87-22.56,117.69-22.56M86.96-230.4c-167.52,0-303.32,128.94-303.32,288S-80.56,345.6,86.96,345.6,390.28,216.65,390.28,57.6,254.48-230.4,86.96-230.4h0Z"/>
    </g>
    <g>
      <ellipse cx="960" cy="1080" rx="1141.28" ry="111.83" style="fill: #3b8b66;"/>
      <path d="M960,969.17c304.81,0,591.38,11.63,806.91,32.75,104.77,10.27,187.02,22.22,244.46,35.53,73.49,17.02,88.91,32.54,88.91,42.56s-15.43,25.53-88.91,42.56c-57.44,13.31-139.69,25.26-244.46,35.53-215.53,21.12-502.09,32.75-806.91,32.75s-591.38-11.63-806.91-32.75c-104.77-10.27-187.02-22.22-244.46-35.53-73.49-17.02-88.91-32.54-88.91-42.56s15.43-25.53,88.91-42.56c57.44-13.31,139.69-25.26,244.46-35.53,215.53-21.12,502.09-32.75,806.91-32.75M960,968.17c-630.31,0-1141.28,50.07-1141.28,111.83s510.97,111.83,1141.28,111.83,1141.28-50.07,1141.28-111.83-510.97-111.83-1141.28-111.83h0Z"/>
    </g>
  </g>
</svg>