<?xml version="1.0" encoding="UTF-8"?>
<svg id="Layer_1" data-name="Layer 1" xmlns="http://www.w3.org/2000/svg" viewBox="0 0 471.35 456.71">
  <path d="M222.64,207.78c59.4,42.98,80.12,129.09,37.45,191.05-44.65,66.1-137.88,75.51-200.18,28.59C-3.11,381.49-21.27,289.55,28.97,227.59c46.85-58.86,135.26-64.13,193.67-19.81h0ZM222.05,208.59c-57.09-43-142.75-34.72-183.49,26.11C-.15,291.42,19.35,369.89,73.52,409.06c53.24,40.4,133.99,36.22,176.99-17.33,46.32-56.69,29.31-141.05-28.46-183.14h0Z" style="fill: #f297a0;"/>
  <path d="M427.52,282.85c-41.62,48.14-109.67,66.56-170.25,49.09-101.5-28.37-152.98-139.7-108.12-235.21C189.81,10.4,295.16-24.94,380.04,18.76c100.32,51.1,120.75,180.87,47.48,264.08h0ZM412.77,270.75c54.97-71.48,27.86-178.06-49.26-221.11-80.36-45.6-184.3-6.46-215.08,80.89-29.85,83.32,19.58,176.65,105.72,197.81,58.29,14.98,123.16-9.78,158.62-57.6h0Z" style="fill: #9fbb79;"/>
</svg>